<svg xmlns="http://www.w3.org/2000/svg" width="749" height="292" viewBox="0 0 749 292" fill="none"><path d="M647.71 219.86L640.07 224.96L644.47 233.93L652.72 229.46L647.71 219.86Z" fill="#F4AB81"></path><path d="M641.16 263.02L624.52 229.09C624.85 228.61 625.44 228.16 626.19 227.72C628.96 226.1 633.99 224.77 637.09 223.8C637.45 223.69 637.79 223.58 638.09 223.48C638.6 223.31 639.02 223.15 639.32 223C641.68 221.84 642.3 224.13 642.3 224.13C640.62 229.21 647.57 230.63 647.03 233.71C647.03 233.71 646.81 235.03 645.71 238.91C644.61 242.79 645.25 248.16 645.53 252.86C645.89 258.93 644.49 261.39 643.18 262.37C642.14 263.15 641.16 263.02 641.16 263.02Z" fill="#EF7F37"></path><path d="M641.16 263.02L624.52 229.09C624.85 228.61 625.44 228.16 626.19 227.72L643.18 262.38C642.14 263.16 641.16 263.03 641.16 263.03V263.02Z" fill="#D26427"></path><path d="M626.22 232.55L625.73 231.54C627.37 231.98 629.6 232.06 632.06 230.7C635.33 228.89 636.61 225.77 637.1 223.8C637.46 223.69 637.8 223.58 638.1 223.48C637.69 225.55 636.41 229.33 632.49 231.49C630.14 232.79 627.96 232.88 626.22 232.55Z" fill="#D26427"></path><path d="M643.42 239.31C643.3 239.06 643.36 238.75 643.58 238.56C643.84 238.34 644.24 238.37 644.46 238.64L646.03 240.5C646.25 240.76 646.22 241.16 645.95 241.38C645.69 241.6 645.29 241.57 645.07 241.3L643.5 239.44C643.5 239.44 643.44 239.36 643.42 239.31Z" fill="white"></path><path d="M644.15 236.34C644.03 236.09 644.09 235.78 644.31 235.59C644.57 235.37 644.97 235.4 645.19 235.67L646.76 237.53C646.98 237.79 646.95 238.19 646.68 238.41C646.42 238.63 646.02 238.6 645.8 238.33L644.23 236.47C644.23 236.47 644.17 236.39 644.15 236.34Z" fill="white"></path><path d="M643.23 242.04C643.11 241.79 643.17 241.48 643.39 241.29C643.65 241.07 644.05 241.1 644.27 241.37L645.84 243.23C646.06 243.49 646.03 243.89 645.76 244.11C645.5 244.33 645.1 244.3 644.88 244.03L643.31 242.17C643.31 242.17 643.25 242.09 643.23 242.04Z" fill="white"></path><path d="M643.08 244.74C642.96 244.49 643.02 244.18 643.24 243.99C643.5 243.77 643.9 243.8 644.12 244.07L645.69 245.93C645.91 246.19 645.88 246.59 645.61 246.81C645.35 247.03 644.95 247 644.73 246.73L643.16 244.87C643.16 244.87 643.1 244.79 643.08 244.74Z" fill="white"></path><path d="M643.12 247.59C643 247.34 643.06 247.03 643.28 246.84C643.54 246.62 643.94 246.65 644.16 246.92L645.73 248.78C645.95 249.04 645.92 249.44 645.65 249.66C645.39 249.88 644.99 249.85 644.77 249.58L643.2 247.72C643.2 247.72 643.14 247.64 643.12 247.59Z" fill="white"></path><path d="M643.41 250.55C643.29 250.3 643.35 249.99 643.57 249.8C643.83 249.58 644.23 249.61 644.45 249.88L646.02 251.74C646.24 252 646.21 252.4 645.94 252.62C645.68 252.84 645.28 252.81 645.06 252.54L643.49 250.68C643.49 250.68 643.43 250.6 643.41 250.55Z" fill="white"></path><path d="M716.33 195.33C716.56 186.78 700.48 168.34 687.07 154.51C679.76 159.16 670.67 158.89 662.84 162.6C675.87 182.58 687.25 188.69 687.25 188.69C687.25 188.69 676.98 195.82 670.52 200.73C664.07 205.64 643.41 217.13 643.41 217.13L650.9 232.92C650.9 232.92 715.99 207.58 716.31 195.34L716.33 195.33Z" fill="#371616"></path><path d="M654.49 231.4C654.43 231.35 654.37 231.29 654.34 231.22L647.16 215.47C647.05 215.24 647.16 214.96 647.39 214.86C647.62 214.75 647.9 214.86 648 215.09L655.18 230.84C655.29 231.07 655.18 231.35 654.95 231.45C654.79 231.52 654.62 231.5 654.49 231.4Z" fill="#7D3C44"></path><path d="M696.17 190.15C690.24 192.97 677 199.53 668.37 205.71C657.11 213.78 649.11 217.36 649.03 217.39C648.8 217.49 648.69 217.77 648.79 218C648.82 218.08 648.88 218.14 648.94 218.19C649.07 218.28 649.24 218.31 649.4 218.24C649.48 218.2 657.56 214.59 668.9 206.46C677.25 200.47 689.99 194.12 696.09 191.21C696.44 191.04 696.54 190.6 696.29 190.3C696.25 190.25 696.2 190.2 696.16 190.15H696.17Z" fill="#7D3C44"></path><path d="M696.24 190.22C696.16 190.15 692.4 186.97 687.16 182.92C686.88 183.1 686.61 183.27 686.32 183.44C691.68 187.57 695.56 190.85 695.63 190.92C695.82 191.09 696.12 191.06 696.28 190.87C696.45 190.67 696.42 190.38 696.23 190.22H696.24Z" fill="#7D3C44"></path><path d="M696.95 171.13C695.51 171.45 693.97 171.64 692.35 171.73C692.3 171.73 692.25 171.73 692.2 171.73C691.07 171.79 689.9 171.79 688.7 171.73C688.27 171.71 687.84 171.68 687.41 171.65C683.98 171.39 680.33 170.71 676.62 169.6C676.28 169.5 675.94 169.4 675.61 169.29C674.63 168.98 673.66 168.65 672.68 168.28C672.35 168.16 672.03 168.03 671.7 167.9C667.96 166.42 664.24 164.53 660.73 162.23C660.32 161.96 659.9 161.68 659.5 161.4C658.41 160.65 657.35 159.86 656.31 159.03C656.28 159.01 656.26 158.99 656.23 158.97C655.92 158.72 655.61 158.47 655.3 158.21C653.64 156.82 652.07 155.33 650.58 153.75C649.29 152.37 648.07 150.9 646.94 149.36C646.75 149.1 646.56 148.83 646.37 148.57C646.14 148.24 645.91 147.9 645.69 147.56C645.67 147.53 645.65 147.5 645.63 147.47C646.79 141.28 655.53 121.89 658.21 116.14C658.74 114.99 659.3 113.86 659.86 112.73C661.15 110.19 662.54 107.69 664.02 105.21C664.21 104.88 664.41 104.56 664.61 104.24C664.72 104.06 664.83 103.88 664.94 103.69C666.34 101.39 667.8 99.1 669.33 96.78C669.52 96.49 669.71 96.2 669.9 95.91C670.83 94.51 671.79 93.09 672.76 91.66C674.82 88.62 676.97 85.51 679.19 82.26C682.76 77.03 686.46 73.43 690.11 71.68C691.03 71.24 691.95 70.91 692.86 70.71C694.88 70.26 696.87 70.39 698.79 71.16C699.97 71.63 701.09 71.99 702.14 72.27C702.34 72.32 702.52 72.37 702.71 72.42C703.31 72.57 703.88 72.68 704.43 72.77C705.06 72.88 705.66 72.95 706.21 73C706.3 73.01 706.39 73.02 706.47 73.03C706.62 73.03 706.77 73.05 706.91 73.06C709.31 73.22 710.85 72.99 710.85 72.99L723.58 80.55C723.59 80.75 723.61 80.95 723.63 81.15C723.63 81.17 723.63 81.18 723.63 81.19C723.83 82.84 724.38 84.25 725.13 85.51C725.27 85.75 725.42 85.98 725.57 86.21C725.68 86.39 725.81 86.56 725.93 86.74C726.06 86.92 726.19 87.09 726.33 87.27C726.65 87.68 726.98 88.08 727.32 88.46C727.32 88.46 727.32 88.46 727.33 88.47C729.83 91.29 732.71 93.57 733.08 96.87C733.13 97.37 733.13 97.9 733.06 98.45C732.99 99.01 732.85 99.59 732.63 100.2C732.51 100.55 732.34 100.9 732.14 101.28C730.05 105.09 723.75 110.81 716.28 123.94C715.81 124.76 715.35 125.6 714.88 126.48C714.74 126.74 714.6 127 714.46 127.27C714.17 127.81 713.88 128.36 713.59 128.93C713.3 129.5 713.01 130.07 712.72 130.66C712.17 131.75 711.62 132.89 711.08 134.07C710.6 135.1 710.11 136.17 709.63 137.27C709.13 138.39 708.64 139.55 708.14 140.75C706.16 145.51 702.39 155.07 699.52 163.27C699.07 164.56 698.64 165.82 698.24 167.02C698.2 167.15 698.16 167.27 698.12 167.39C697.68 168.73 697.28 169.98 696.95 171.13Z" fill="#F9F5EA"></path><path d="M696.4 156.38C696.4 156.38 696.34 156.38 696.32 156.37C686.88 154.06 680.31 145.57 676.47 138.85C672.32 131.6 670.35 124.79 670.33 124.73C670.28 124.54 670.38 124.35 670.57 124.3C670.76 124.25 670.95 124.35 671 124.54C671.02 124.61 672.96 131.34 677.08 138.52C680.86 145.11 687.29 153.45 696.49 155.7C696.68 155.75 696.79 155.93 696.75 156.12C696.71 156.28 696.57 156.39 696.41 156.39L696.4 156.38Z" fill="#504E26"></path><path d="M711.62 89.48C708.92 87.88 707.43 84.73 707.29 80.26C707.16 76.45 708.04 73.06 708.08 72.92C708.16 72.62 708.46 72.4499 708.76 72.5199C709.06 72.5999 709.23 72.8999 709.16 73.1999C709.13 73.3299 705.8 86.38 713.4 89.09C715.39 89.8 717.2 89.7299 718.79 88.8999C722.27 87.0899 723.65 82.22 723.66 82.17C723.74 81.88 724.05 81.7 724.34 81.78C724.63 81.86 724.81 82.1699 724.73 82.4599C724.67 82.6799 723.21 87.85 719.3 89.88C717.42 90.86 715.31 90.94 713.02 90.13C712.52 89.95 712.06 89.74 711.62 89.48Z" fill="white"></path><path d="M685.84 136.77C684.71 136.1 683.63 135.32 682.58 134.42C680 132.21 677.65 129.3 675.6 125.78C672.12 119.8 670.7 114.04 670.68 113.98C670.64 113.8 670.74 113.61 670.92 113.55C671.1 113.49 671.27 113.59 671.32 113.77C671.33 113.83 672.74 119.52 676.18 125.41C679.33 130.83 684.9 137.54 693.49 138.75C693.67 138.77 693.78 138.95 693.74 139.13C693.7 139.32 693.53 139.45 693.35 139.42C690.71 139.05 688.2 138.15 685.84 136.76V136.77Z" fill="#504E26"></path><path d="M697.63 126.82C696.38 126.42 695.15 125.91 693.92 125.27C690.9 123.7 687.96 121.4 685.17 118.44C680.43 113.41 677.73 108.11 677.71 108.06C677.63 107.9 677.69 107.68 677.85 107.59C678.01 107.49 678.2 107.55 678.29 107.71C678.32 107.76 680.98 112.98 685.66 117.95C689.96 122.51 696.9 127.79 705.54 127.02C705.72 127 705.87 127.15 705.87 127.34C705.87 127.53 705.74 127.7 705.56 127.71C702.9 127.95 700.25 127.65 697.64 126.82H697.63Z" fill="#504E26"></path><path d="M695.27 91.06L703.26 87.98C703.26 87.98 703.72 87.8 704.03 87.76C704.03 87.76 703.4 87.96 702.61 89.03C701.82 90.1 701.07 92.17 701.07 92.17C701.07 92.17 698.41 100.21 696.8 107.82C696.8 107.82 693.71 107.59 691.55 106.23C691.55 106.23 690.17 104.41 690.2 102.39C690.23 100.37 691.07 98.19 691.07 98.19C691.07 98.19 691.76 96.03 692.84 93.79C693.92 91.55 695.27 91.08 695.27 91.08V91.06Z" fill="#F5A618"></path><path d="M691.56 106.21C691.56 106.21 695.31 109.01 704.93 107.54C714.55 106.07 714.45 104.26 716.31 102.09L714.2 109.38C714.2 109.38 713.75 111.56 712.24 112.88C710.74 114.2 708.77 114.86 707.36 115.16C705.95 115.46 701.09 116.52 698.61 115.32C696.13 114.12 694.59 111.01 694.59 111.01L691.56 106.21Z" fill="#EC6C6B"></path><path d="M715.91 98.37C716.77 100.86 716.3 102.09 716.3 102.09L715.62 102.96C714.33 104.88 712.93 105.42 712.93 105.42C707.94 96.18 700.95 92.52 700.95 92.52C700.95 92.52 701.79 90 702.8 88.75C702.8 88.75 703.45 87.98 704.03 87.75C704.03 87.75 705.29 87.21 708.17 89.25C710.03 90.57 711.9 92.45 713.42 94.38C714.4 95.62 715.39 96.87 715.91 98.36V98.37Z" fill="#005481"></path><path d="M716.94 60.5199C716.94 60.5199 714.23 64.5099 711.93 65.0099C711.93 65.0099 712.78 69.3399 715.77 70.0699C715.77 70.0699 718.26 62.7199 716.94 60.5199Z" fill="#371616"></path><path d="M746.52 63.73C746.24 64.08 745.93 64.43 745.59 64.76C744.61 65.73 743.36 66.64 741.8 67.43L741.48 67.22L741.16 67.01L740.04 66.27C740.04 66.27 742.64 54.45 737.28 52.15C731.91 49.86 723.26 59.01 723.26 59.01L717.81 54.48C717.81 54.48 719.2 45.41 725.68 42.09C731.08 39.33 735.36 43.67 735.36 43.67C735.36 43.67 742.49 43.49 746.15 48.96C748.52 52.5 750.43 58.78 746.52 63.71V63.73Z" fill="#371616"></path><path d="M725.29 78.4L723.36 81.65C722.8 81.73 722.25 81.77 721.73 81.77C714.07 81.81 710.48 73.99 710.48 73.99L717.17 62.72L724.32 76.52L725.29 78.39V78.4Z" fill="#F4AB81"></path><path d="M725.29 78.4L723.65 81.16C717.43 75.8 717.55 69.9 717.55 69.9L724.32 76.53L725.29 78.4Z" fill="#371616"></path><path d="M737.81 66.5699C737.81 66.5699 740.95 65.4899 740.7 68.2899C740.45 71.0899 737.02 75.0299 734.64 72.6399L737.81 66.5799V66.5699Z" fill="#EE7960"></path><path d="M735.24 75.3899C735.24 75.3899 731.26 82.1099 724.28 77.9499C717.34 73.8099 715.85 65.54 715.75 65.15V65.1399L716.51 63.68L720.47 56.12L722.59 52.0799C722.59 52.0799 725.89 44.4999 733.36 47.1999C738.82 49.1699 742.93 52.7099 743.73 56.6399C743.76 56.7699 743.78 56.8899 743.8 57.0199C744 58.3499 743.8 59.72 743.17 61.09L739.21 68.26L738.24 70.0199L735.26 75.41L735.24 75.3899Z" fill="#F4AB81"></path><path d="M741.06 66.94L739.03 65.4499C739.03 65.4499 742.57 60.53 741.31 56.19C740.5 53.4 736.39 51.6199 733.56 50.6999C733.4 50.6499 733.25 50.6 733.1 50.56C732.38 50.34 731.77 50.1799 731.36 50.0799C731.18 50.0399 731.05 50.0099 730.95 49.9799C730.85 49.9599 730.79 49.9499 730.79 49.9499C730.79 49.9499 730.46 53.5699 727.08 54.4299C724.21 55.1599 723.93 60.9899 723.93 60.9899L720.74 59.0999C719.62 57.3399 721.02 53.62 721.02 53.62C721.02 53.62 722.07 48.08 726.33 45.62C728.65 44.29 732.94 45.0699 736.88 46.8399C737.11 46.9499 737.34 47.0499 737.57 47.1599C740.6 48.6299 743.34 50.6599 744.67 52.7199C745.72 54.3499 745.66 56.5 745.1 58.63C744.95 59.21 744.76 59.7899 744.55 60.3599C743.24 63.8799 741.02 66.94 741.02 66.94H741.06Z" fill="#371616"></path><path d="M729.46 55.3C729.35 56.3 730.05 57.1999 731.05 57.3299C731.63 57.4099 732.29 57.53 732.94 57.75C733.86 58.06 734.85 57.54 735.11 56.6C735.11 56.6 732.03 54.37 729.46 55.3Z" fill="#371616"></path><path d="M742.09 62.81C741.27 63.38 740.14 63.2 739.55 62.39C739.21 61.92 738.78 61.4 738.28 60.93C737.57 60.27 737.55 59.15 738.25 58.48C738.25 58.48 741.68 60.11 742.09 62.82V62.81Z" fill="#371616"></path><path d="M730.72 61.73C730.32 62.4 729.69 62.77 729.32 62.54C728.94 62.32 728.96 61.59 729.36 60.92C729.76 60.25 730.39 59.88 730.76 60.11C731.14 60.33 731.12 61.06 730.72 61.73Z" fill="#371616"></path><path d="M737.47 65.74C737.07 66.41 736.44 66.78 736.07 66.55C735.69 66.33 735.71 65.6 736.11 64.93C736.51 64.26 737.14 63.89 737.51 64.12C737.89 64.34 737.87 65.07 737.47 65.74Z" fill="#371616"></path><path d="M729.14 72.1301C726.68 70.6701 725.92 67.37 725.92 67.33C725.88 67.16 725.99 66.99 726.16 66.95C726.33 66.91 726.5 67.02 726.54 67.19C726.59 67.41 727.77 72.51 732.1 72.15C732.28 72.14 732.43 72.27 732.45 72.44C732.47 72.62 732.33 72.77 732.16 72.79C730.95 72.89 729.96 72.6101 729.15 72.1301H729.14Z" fill="#371616"></path><path d="M719.56 63.71C719.48 63.77 717.38 65.29 715.75 65.14L716.51 63.67C716.51 63.67 717.73 64.14 719.56 63.71Z" fill="#371616"></path><path d="M721.1 58.3201C721.1 58.3201 720.56 53.12 716.9 54.78C713.89 56.15 713.34 64.06 717.79 63.88L721.1 58.31V58.3201Z" fill="#F4AB81"></path><path d="M718.07 62.5799C717.93 62.4999 717.87 62.3199 717.94 62.1699C719.26 59.2599 717.54 56.9499 717.47 56.8499C717.36 56.7099 717.39 56.5099 717.53 56.3999C717.67 56.2899 717.87 56.3199 717.98 56.4599C718.06 56.5699 720.01 59.1699 718.53 62.4299C718.46 62.5899 718.27 62.6599 718.1 62.5899C718.09 62.5899 718.08 62.5799 718.07 62.5699V62.5799Z" fill="#371616"></path><path d="M716.49 59.37C716.41 59.32 716.35 59.24 716.34 59.14C716.31 58.96 716.44 58.8 716.61 58.78C716.77 58.76 718.23 58.56 718.93 59.27C719.06 59.4 719.06 59.6 718.93 59.72C718.8 59.85 718.6 59.84 718.48 59.72C718.08 59.31 717.06 59.36 716.71 59.41C716.63 59.42 716.56 59.41 716.5 59.37H716.49Z" fill="#371616"></path><path d="M734.56 62.72L732.32 66.28" stroke="#381313" stroke-linecap="round" stroke-linejoin="round"></path><path d="M730.79 66.27C730.79 66.27 733.3 65.78 733.45 67.48C733.59 69.19 730.79 68.57 730.79 68.57" stroke="#381313" stroke-linecap="round" stroke-linejoin="round"></path><path d="M711.87 239.72L713.24 248.8L723.23 248.63L722.69 239.27L711.87 239.72Z" fill="#F4AB81"></path><path d="M748.15 264L710.36 264.63C710.07 264.12 709.91 263.4 709.83 262.54C709.54 259.35 710.47 254.23 710.92 251.01C710.97 250.63 711.02 250.28 711.06 249.96C711.12 249.42 711.16 248.97 711.15 248.64C711.11 246.02 713.44 246.43 713.44 246.43C717.33 250.12 721.56 244.42 724.12 246.22C724.12 246.22 725.22 246.98 728.27 249.63C731.31 252.28 736.45 253.97 740.82 255.72C746.47 257.97 748.1 260.28 748.43 261.89C748.7 263.16 748.15 263.99 748.15 263.99V264Z" fill="#EF7F37"></path><path d="M748.15 264L710.36 264.63C710.07 264.12 709.91 263.4 709.83 262.54L748.42 261.89C748.69 263.16 748.14 263.99 748.14 263.99L748.15 264Z" fill="#D26427"></path><path d="M714.22 264.57L713.1 264.59C714.2 263.29 715.21 261.31 715.03 258.51C714.79 254.78 712.5 252.3 710.92 251.02C710.97 250.64 711.02 250.29 711.06 249.97C712.76 251.22 715.63 253.98 715.93 258.45C716.11 261.13 715.26 263.14 714.22 264.58V264.57Z" fill="#D26427"></path><path d="M727.66 251.87C727.38 251.87 727.12 251.69 727.05 251.41C726.96 251.08 727.16 250.74 727.49 250.65L729.84 250.02C730.17 249.93 730.51 250.13 730.6 250.46C730.69 250.79 730.49 251.13 730.16 251.22L727.81 251.85C727.76 251.86 727.71 251.87 727.66 251.87Z" fill="white"></path><path d="M725.28 249.95C725 249.95 724.74 249.77 724.67 249.49C724.58 249.16 724.78 248.82 725.11 248.73L727.46 248.1C727.79 248.01 728.13 248.21 728.22 248.54C728.31 248.87 728.11 249.21 727.78 249.3L725.43 249.93C725.38 249.94 725.33 249.95 725.28 249.95Z" fill="white"></path><path d="M730.04 253.21C729.76 253.21 729.5 253.03 729.43 252.75C729.34 252.42 729.54 252.08 729.87 251.99L732.22 251.36C732.55 251.27 732.89 251.47 732.98 251.8C733.07 252.13 732.87 252.47 732.54 252.56L730.19 253.19C730.14 253.2 730.09 253.21 730.04 253.21Z" fill="white"></path><path d="M732.42 254.49C732.14 254.49 731.88 254.31 731.81 254.03C731.72 253.7 731.92 253.36 732.25 253.27L734.6 252.64C734.93 252.55 735.27 252.75 735.36 253.08C735.45 253.41 735.25 253.75 734.92 253.84L732.57 254.47C732.52 254.48 732.47 254.49 732.42 254.49Z" fill="white"></path><path d="M735.02 255.66C734.74 255.66 734.48 255.48 734.41 255.2C734.32 254.87 734.52 254.53 734.85 254.44L737.2 253.81C737.53 253.72 737.87 253.92 737.96 254.25C738.05 254.58 737.85 254.92 737.52 255.01L735.17 255.64C735.12 255.65 735.07 255.66 735.02 255.66Z" fill="white"></path><path d="M737.82 256.66C737.54 256.66 737.28 256.48 737.21 256.2C737.12 255.87 737.32 255.53 737.65 255.44L740 254.81C740.33 254.72 740.67 254.92 740.76 255.25C740.85 255.58 740.65 255.92 740.32 256.01L737.97 256.64C737.92 256.65 737.87 256.66 737.82 256.66Z" fill="white"></path><path d="M647.88 139.24C647.88 139.24 640.88 149.97 646.4 163.18C651.92 176.39 670.3 181.15 701.43 188.42C701.43 188.42 701.37 199.85 702.85 207.64C704.33 215.38 710.39 241.44 710.39 241.44H724.63C724.63 241.44 723.76 182.46 720.63 173.6C717.49 164.74 678.23 152.41 647.88 139.26V139.24Z" fill="#371616"></path><path d="M711.55 236.74C711.35 236.74 711.18 236.6 711.15 236.39C711.13 236.26 709.23 223.41 706.75 211.66C704.97 203.22 704.7 187.4 704.67 184.86C703.06 184.6 695.93 183.43 687.49 181.46C678.64 179.4 666.48 176.01 658.81 171.58C654.76 169.25 651.76 166.14 649.88 162.36C648.38 159.34 647.59 155.88 647.54 152.08C647.45 145.64 649.48 140.53 649.57 140.31C649.65 140.1 649.89 140 650.1 140.09C650.31 140.17 650.41 140.41 650.32 140.62C650.3 140.67 648.26 145.82 648.35 152.1C648.48 160.47 652.13 166.79 659.22 170.88C673.76 179.27 704.83 184.06 705.15 184.11C705.35 184.14 705.49 184.31 705.49 184.51C705.49 184.69 705.64 202.42 707.55 211.49C710.03 223.26 711.94 236.14 711.96 236.27C711.99 236.49 711.84 236.7 711.62 236.73C711.6 236.73 711.58 236.73 711.56 236.73L711.55 236.74Z" fill="#7D3C44"></path><path d="M724.32 236.74H709.5C709.28 236.74 709.09 236.56 709.09 236.33C709.09 236.1 709.27 235.92 709.5 235.92H724.32C724.54 235.92 724.73 236.1 724.73 236.33C724.73 236.56 724.55 236.74 724.32 236.74Z" fill="#7D3C44"></path><path d="M702.6 127.14C703.03 130.22 704.77 132.43 704.77 132.43L704.43 132.94L703.13 134.9L716.03 138.7C716.24 134.9 710.98 134.47 710.98 134.47C711.41 134.13 711.81 133.79 712.19 133.43C713.46 132.25 714.45 130.97 715.13 129.68C714.71 127.3 712.29 125.39 708.98 124.72C706.75 124.27 704.09 125.47 702.6 127.14Z" fill="white"></path><path d="M702.6 127.14C703.03 130.22 704.77 132.43 704.77 132.43L704.43 132.94C707.42 134.13 710.26 133.88 712.19 133.43C713.46 132.25 714.45 130.97 715.13 129.68C714.71 127.3 712.29 125.39 708.98 124.72C706.75 124.27 704.09 125.47 702.6 127.14Z" fill="#E4DED7"></path><path d="M687.39 116.61C687.39 116.61 686.53 118.34 688.96 119.3C688.96 119.3 689.92 120.85 691.61 120.19C691.61 120.19 693.36 122.33 695.21 121.24L698.43 115.56C698.43 115.56 699.82 112.87 696.48 111.56C696.48 111.56 696.53 109.64 694.31 109.04C692.26 108.48 691.66 110.02 691.57 110.26C691.57 110.27 691.57 110.28 691.56 110.29C691.56 110.29 688.59 109.58 688.12 112.96C688.12 112.96 685.75 114.82 687.39 116.61Z" fill="white"></path><path d="M688.96 119.29C688.96 119.29 689.92 120.84 691.61 120.18C691.61 120.18 693.36 122.32 695.21 121.23L698.43 115.55C698.43 115.55 699.82 112.86 696.48 111.55C696.48 111.55 696.53 109.63 694.31 109.03C692.26 108.47 691.66 110.01 691.57 110.25C691.57 110.26 691.57 110.27 691.56 110.28C691.56 110.28 692.42 109.19 693.94 110.84C695.45 112.49 693.83 114.07 692.94 114.23C692.94 114.23 694 115.85 692.47 117.32C690.94 118.78 689.35 117.22 689.21 116.72C689.21 116.72 688.32 117.61 687.39 116.62C687.39 116.62 686.53 118.35 688.96 119.31V119.29Z" fill="#E4DED7"></path><path d="M695 124.51C695.32 126.41 697.09 128.3 699.53 129.79C701.11 128.08 704.1 124.72 706.79 120.95C705.57 118.24 702.92 117.05 702.92 117.05C702.92 117.05 706.17 117.68 707.55 119.86C708.95 117.81 710.22 115.69 711.1 113.66C712.57 110.3 716.76 109.11 719.7 111.29C719.77 111.34 719.83 111.39 719.9 111.44C723.92 114.61 720.48 122.17 716.38 127.91C714.8 130.12 713.07 131.6 711.53 132.58C713.44 132.33 715.2 131.66 716.59 130.46C718.9 128.47 722.49 121.8 724.2 115.86C725.1 112.74 725.48 109.82 724.89 107.89L722.58 107.1L714.67 104.42C712.15 103.56 711.47 104.08 709.39 104.91C707.17 105.8 703.28 109.41 701.24 110.83C697.1 113.7 694.02 118.76 695 124.51Z" fill="white"></path><path d="M718.62 107.03C718.62 107.03 720.57 112.78 724.22 115.86C725.12 112.74 725.5 109.82 724.91 107.89L722.6 107.1C721.42 106.92 720.1 106.88 718.63 107.03H718.62Z" fill="#F3AE9A"></path><path d="M706.46 127.77C706.46 127.77 710.19 124.1 707.6 119.9C707.59 119.88 707.58 119.87 707.57 119.85C708.97 117.8 710.24 115.67 711.12 113.65C712.59 110.29 716.78 109.1 719.72 111.28C719.79 111.33 719.85 111.38 719.92 111.43C723.94 114.6 720.5 122.16 716.4 127.9C714.82 130.11 713.09 131.59 711.55 132.57C707.56 133.1 702.9 131.82 699.54 129.78C701.12 128.07 704.11 124.71 706.8 120.94C707.55 122.61 707.76 124.86 706.46 127.77Z" fill="#F3AE9A"></path><path d="M702.93 117.04C702.93 117.04 706.18 117.67 707.56 119.85C707.31 120.22 707.06 120.58 706.8 120.94C705.58 118.23 702.93 117.04 702.93 117.04Z" fill="#E4DED7"></path><path d="M706.46 127.77C707.76 124.86 707.55 122.61 706.8 120.94C707.06 120.58 707.31 120.22 707.56 119.85C707.57 119.87 707.58 119.88 707.59 119.9C710.18 124.11 706.45 127.77 706.45 127.77H706.46Z" fill="#ACBDC5"></path><path d="M694.71 120.01C694.71 120.01 696.8 113.98 703.32 117.23C709.81 120.46 708.62 127.49 702.41 132.37C702.41 132.37 707.67 132.8 707.46 136.6L694.56 132.8L696.2 130.34C696.2 130.34 692.33 125.41 694.71 120.02V120.01Z" fill="white"></path><path d="M692.76 129.21C692.76 129.21 698.5 131.35 701.19 129.89C703.88 128.43 705.06 125.5 707.27 126.27C709.48 127.04 709.66 132.27 713.02 133.42C716.38 134.57 721.32 137.46 720.79 138.6C720.26 139.73 718.09 139.1 718.09 139.1C718.09 139.1 717.85 140.75 717.21 141.25C716.57 141.75 715.09 141.61 715.09 141.61C715.09 141.61 715.04 143.12 714.25 143.47C713.46 143.83 711.54 143.51 711.54 143.51C711.54 143.51 711.72 144.49 709.78 144.26C707.84 144.03 702.59 143.17 699.51 141.97C696.43 140.77 690.83 138.88 690.83 138.88C690.83 138.88 690.77 131.59 692.74 129.23L692.76 129.21Z" fill="#F4AB81"></path><path d="M687.18 94.69L684.1 97.74C683.07 98.78 682.03 99.82 681.01 100.86L679.49 102.43L677.98 104C676.98 105.05 676 106.1 675.05 107.15C674.09 108.2 673.16 109.25 672.29 110.29C671.42 111.32 670.61 112.37 669.94 113.29C669.61 113.75 669.32 114.19 669.14 114.49L669.02 114.68C669.02 114.68 669 114.72 668.98 114.74C668.98 114.74 668.98 114.73 668.99 114.72L669.02 114.64C669.04 114.59 669.05 114.54 669.06 114.48C669.18 114.06 669.23 113.58 669.2 113.19C669.18 112.8 669.09 112.5 669.03 112.33C668.96 112.15 668.9 112.08 668.88 112.08C668.84 112.08 668.93 112.33 669.14 112.63C669.34 112.94 669.64 113.31 670 113.7C670.36 114.09 670.77 114.5 671.21 114.91C672.1 115.74 673.13 116.57 674.21 117.39C676.38 119.03 678.75 120.62 681.19 122.17C683.63 123.72 686.16 125.23 688.7 126.73C689.98 127.47 691.26 128.22 692.55 128.95L696.39 131.15L696.49 131.21C698.58 132.41 699.31 135.07 698.11 137.16C697.11 138.9 695.1 139.69 693.24 139.22L692.65 139.07L692.08 138.92C691.7 138.82 691.32 138.72 690.95 138.61C690.2 138.39 689.45 138.18 688.7 137.95C687.21 137.49 685.72 137.02 684.25 136.5C681.29 135.49 678.37 134.36 675.45 133.1C672.54 131.83 669.64 130.45 666.74 128.77C665.29 127.93 663.84 127.02 662.37 125.95C661.64 125.42 660.89 124.85 660.15 124.2C659.4 123.55 658.65 122.84 657.88 121.99C657.12 121.13 656.33 120.14 655.6 118.79C655.24 118.11 654.89 117.34 654.61 116.44C654.33 115.54 654.13 114.49 654.1 113.34C654.06 112.2 654.23 110.96 654.58 109.81C654.62 109.67 654.67 109.53 654.72 109.39L654.79 109.18L654.85 109.02L655.03 108.56C655.09 108.41 655.15 108.27 655.21 108.13L655.3 107.92L655.39 107.72C655.88 106.66 656.36 105.8 656.83 104.98C657.78 103.35 658.76 101.95 659.73 100.59C660.71 99.24 661.7 97.95 662.69 96.68C663.69 95.43 664.71 94.2 665.73 93C666.75 91.79 667.79 90.62 668.83 89.45C669.87 88.28 670.93 87.13 672 86C672.54 85.43 673.07 84.86 673.62 84.3L674.44 83.46L674.86 83.04L675.3 82.6C678.61 79.3 683.96 79.31 687.26 82.62C690.56 85.93 690.55 91.28 687.24 94.58L687.22 94.6L687.15 94.66L687.18 94.69Z" fill="#F4AB81"></path><path d="M662.42 114.63C662.31 114.63 662.2 114.58 662.13 114.48C662.02 114.32 662.07 114.1 662.23 114C665.25 111.98 670.36 113 670.58 113.04C670.77 113.08 670.89 113.26 670.85 113.45C670.81 113.64 670.63 113.76 670.44 113.72C670.39 113.71 665.39 112.71 662.62 114.57C662.56 114.61 662.49 114.63 662.43 114.63H662.42Z" fill="#EE7960"></path><path d="M669.91 113.45C669.8 113.45 669.7 113.4 669.63 113.31C668.3 111.54 664.68 110.53 664.65 110.52C664.46 110.47 664.35 110.28 664.41 110.09C664.46 109.9 664.65 109.8 664.84 109.85C665 109.89 668.72 110.94 670.19 112.89C670.31 113.04 670.28 113.26 670.12 113.38C670.06 113.43 669.98 113.45 669.91 113.45Z" fill="#EE7960"></path><path d="M694.78 90.0299L682 105.75C682 105.75 669.91 101.48 664.96 88.8499C664.96 88.8499 677.76 73.3699 688.17 71.5599C691.76 71.5599 693.33 72.5099 695.26 75.1599C698.51 79.6199 698.25 85.7399 694.77 90.0199L694.78 90.0299Z" fill="#F9F5EA"></path><path d="M683.44 104.33C683.37 104.33 683.3 104.31 683.23 104.26C683.07 104.15 683.04 103.93 683.16 103.77C683.22 103.68 689.46 95.2 693.99 90.44C694.12 90.3 694.34 90.29 694.48 90.43C694.62 90.56 694.63 90.78 694.49 90.92C689.99 95.64 683.78 104.09 683.71 104.18C683.64 104.27 683.54 104.32 683.43 104.32L683.44 104.33Z" fill="#504E26"></path><path d="M718.74 104.96C718.74 104.96 713.75 98.8699 710.77 97.3499C707.79 95.8299 701.55 94.3899 699.04 93.8999C696.54 93.3999 694.49 97.9299 693.47 98.6599C692.45 99.3899 693.03 100.15 693.03 100.15C693.03 100.15 691.44 101.81 691.56 102.88C691.69 103.95 692.03 104.05 692.03 104.05C692.03 104.05 691.47 105.21 691.44 106.3C691.41 107.4 691.84 108.7 693.05 108.83C694.26 108.97 696.27 108.89 696.67 107.76C697.08 106.63 694.61 107.74 694.39 107.01C694.16 106.28 696.23 105.57 698.2 105.34C700.17 105.11 705.19 106.81 707.31 106.33L713.99 113.37C713.99 113.37 717.96 108.96 718.73 104.95L718.74 104.96Z" fill="#F4AB81"></path><path d="M721.9 129.21C711.2 117.08 708.74 107.84 708.74 107.84C711.71 104.35 713.32 99.23 713.32 99.23C718.61 104.84 734.92 116.84 735.82 117.51C735.85 117.53 735.86 117.54 735.86 117.54C735.82 117.43 735.78 117.32 735.74 117.2C735.65 116.94 735.54 116.65 735.42 116.32C735.32 116.06 735.22 115.78 735.1 115.48C732.58 108.84 726.42 93.46 726.42 93.46L727.42 90.1C737.13 102.08 749.01 122.17 745.83 134.16C743.75 141.99 732.59 141.34 721.89 129.21H721.9Z" fill="#F4AB81"></path><path d="M726.76 89.2899C730.45 93.7699 735.18 98.7699 740.16 105.69C740.16 105.69 734.51 112.74 728.38 112.63C722.25 112.52 721.67 100.21 721.67 100.21L726.76 89.2899Z" fill="#F9F5EA"></path><path d="M741.43 126.92C741.35 126.94 741.27 126.93 741.2 126.92C741.04 126.87 740.91 126.74 740.87 126.57C739.98 122.54 737.59 119.39 735.83 117.52C735.86 117.54 735.87 117.55 735.87 117.55C735.83 117.44 735.79 117.33 735.75 117.21C735.66 116.95 735.55 116.66 735.43 116.33C735.33 116.07 735.23 115.79 735.11 115.49C735.35 115.7 735.64 115.97 735.96 116.28C736.38 116.69 736.85 117.19 737.34 117.76C739.04 119.75 740.98 122.68 741.79 126.36C741.85 126.61 741.69 126.87 741.43 126.92Z" fill="#EE7960"></path><path d="M740.54 119.3C740.41 119.44 740.22 119.49 740.05 119.44C739.99 119.42 739.92 119.39 739.87 119.34C739.86 119.33 738.83 118.44 737.34 117.76C736.95 117.58 736.53 117.42 736.09 117.29C735.98 117.26 735.86 117.22 735.74 117.2C735.65 116.94 735.54 116.65 735.42 116.32C735.53 116.24 735.67 116.21 735.81 116.24C735.86 116.25 735.91 116.26 735.96 116.27C738.5 116.89 740.41 118.55 740.5 118.63C740.7 118.8 740.71 119.1 740.54 119.3Z" fill="#EE7960"></path><path d="M730.99 107.5C730.99 107.5 731.02 107.5 731.03 107.5C731.09 107.5 737.07 107.68 741.45 109.65C741.53 109.68 741.62 109.65 741.66 109.57C741.7 109.49 741.66 109.4 741.58 109.36C737.15 107.37 731.1 107.19 731.04 107.19C730.95 107.19 730.88 107.26 730.88 107.34C730.88 107.41 730.93 107.47 730.99 107.49V107.5Z" fill="white"></path><path d="M740.95 111.41C741.02 111.43 741.09 111.41 741.13 111.34C741.17 111.27 741.15 111.17 741.07 111.13C736.86 108.7 730.87 107.91 730.81 107.9C730.72 107.89 730.65 107.95 730.64 108.03C730.63 108.12 730.69 108.19 730.77 108.2C730.83 108.2 736.76 108.99 740.92 111.39C740.93 111.39 740.94 111.4 740.95 111.4V111.41Z" fill="white"></path><path d="M740.19 113.68C740.25 113.7 740.31 113.68 740.36 113.63C740.41 113.56 740.4 113.47 740.34 113.41C736.55 110.37 730.75 108.67 730.69 108.65C730.61 108.63 730.52 108.67 730.5 108.76C730.48 108.84 730.52 108.93 730.61 108.95C730.87 109.03 736.47 110.7 740.14 113.65C740.16 113.66 740.17 113.67 740.19 113.68Z" fill="white"></path><path d="M728.52 97.06L730.94 98.71C731.37 98.59 731.87 98.33 732.42 97.97C736.95 95 744.71 84.87 740.47 83.15C736.45 81.52 732.27 88.82 730.08 93.46C729.11 95.52 728.53 97.05 728.53 97.05L728.52 97.06Z" fill="white"></path><path d="M728.52 97.06L730.94 98.71C731.37 98.59 731.87 98.33 732.42 97.97C732.04 96.11 730.78 94.34 730.07 93.46C729.1 95.52 728.52 97.05 728.52 97.05V97.06Z" fill="#E4DED7"></path><path d="M729.41 113.94L728.36 115.72L726.41 115.15L726.83 113.13C727.67 113.51 728.54 113.84 729.41 113.94Z" fill="white"></path><path d="M728.4 113.73L727.56 115.16L727.84 113.55C728.03 113.62 728.21 113.68 728.4 113.73Z" fill="#E4DED7"></path><path d="M714.21 100.13C715.46 105 719.16 107.58 719.16 107.58C719.16 107.58 721.42 110.89 724.58 112.79C727.79 114.72 731.28 114.9 733.31 110.94C734.2 109.2 734.4 107.05 734.15 104.84C734.1 104.37 734.02 103.89 733.93 103.42C733.47 101.04 732.54 98.68 731.42 96.76C729.32 93.14 724.04 92.16 719.27 95.5C714.5 98.84 714.21 100.13 714.21 100.13Z" fill="white"></path><path d="M727.65 101.93C727.51 102.68 727.06 103.22 726.64 103.15C726.23 103.07 726.01 102.4 726.15 101.65C726.29 100.9 726.74 100.36 727.16 100.43C727.57 100.51 727.79 101.18 727.65 101.93Z" fill="#0E1D13"></path><path d="M733.08 103.53C732.94 104.28 732.49 104.82 732.07 104.75C731.66 104.67 731.44 104 731.58 103.25C731.72 102.5 732.17 101.96 732.59 102.03C733 102.11 733.22 102.78 733.08 103.53Z" fill="#0E1D13"></path><path d="M719.11 96.9L720.38 96.87L722.45 96.82C722.45 96.82 726.6 77.47 719.59 76.13C718.22 75.87 717.31 76.71 716.74 78.19C714.93 82.93 716.74 94.22 719.1 96.91L719.11 96.9Z" fill="white"></path><path d="M719.11 96.8999L720.38 96.8699C720.58 94.0999 721.53 78.4799 717.61 77.9599C717.28 77.9199 716.99 77.9999 716.74 78.1899C714.93 82.9299 716.74 94.2199 719.1 96.9099L719.11 96.8999Z" fill="#F3AE9A"></path><path d="M730.07 110.16C730.29 110.57 730.79 110.73 731.21 110.53C731.84 110.23 732.69 109.46 732.99 108.78C733.49 107.65 733.08 106.98 731.38 106.49C729.73 106.02 728.73 106.81 728.95 107.59C729.09 108.09 729.66 109.43 730.06 110.16H730.07Z" fill="#EE7960"></path><path d="M724.76 106.33C724.83 106.35 724.9 106.33 724.94 106.26C724.99 106.19 724.96 106.09 724.89 106.05C724.84 106.02 719.68 102.86 714.89 102.09C714.81 102.08 714.73 102.13 714.71 102.22C714.69 102.31 714.75 102.38 714.84 102.4C719.58 103.16 724.68 106.29 724.73 106.32C724.74 106.32 724.75 106.33 724.77 106.34L724.76 106.33Z" fill="#E4DED7"></path><path d="M714.29 104.14C714.29 104.14 714.31 104.14 714.33 104.14C719.12 104.41 724.51 107.01 724.56 107.04C724.64 107.08 724.73 107.04 724.77 106.97C724.81 106.89 724.77 106.8 724.7 106.76C724.65 106.73 719.2 104.11 714.35 103.83C714.26 103.83 714.19 103.89 714.19 103.98C714.19 104.05 714.23 104.12 714.3 104.14H714.29Z" fill="#E4DED7"></path><path d="M713.68 106.46C713.68 106.46 713.72 106.46 713.74 106.46C718.51 106 724.24 107.75 724.3 107.76C724.38 107.78 724.47 107.74 724.49 107.66C724.52 107.58 724.47 107.49 724.39 107.47C724.33 107.45 718.55 105.69 713.71 106.16C713.62 106.16 713.56 106.24 713.57 106.33C713.57 106.4 713.62 106.45 713.68 106.46Z" fill="#E4DED7"></path><path d="M733.31 110.94C733.31 110.94 738.37 114.24 736.99 118.84C735.61 123.44 731.63 119.51 731.67 116.97C731.7 114.43 730.78 113.65 730.78 113.65C730.78 113.65 731.58 111.58 733.31 110.94Z" fill="white"></path><path d="M709.49 96.4699C710.51 95.7899 711.85 95.8199 712.85 96.5299C714 97.3399 715.69 98.9499 715.28 101.16C714.68 104.43 712.25 106.1 710.72 105.01C709.19 103.92 711.14 97.66 709.3 96.61C709.3 96.61 709.37 96.5499 709.49 96.4699Z" fill="white"></path><path d="M163.12 127.56L164.82 126.58L159.03 117.13C161.58 117.56 164.8 117.66 164.82 114.62L155.8 110.27L129.84 92.1L105.69 45.34L88.75 74.05L125.44 110.91L145.77 123.12L148.37 128.92L150.74 129.18L148.45 123.13H149.72L153.02 129.8L155.27 129.97L152.55 123.13H153.94L157.65 130.43L160.11 129.86L157.11 123.13H159.06L163.14 127.57L163.12 127.56Z" fill="#F5BCA5"></path><path d="M123.75 80.3099C123.75 80.3099 121.36 91.9999 114.35 99.7699L91.2998 76.6099L113.53 60.5199L123.76 80.3099H123.75Z" fill="#E88378"></path><path d="M127.06 95.28L129.84 92.1L128.45 99" stroke="#DF7061" stroke-linecap="round" stroke-linejoin="round"></path><path d="M145.76 123.13C145.76 123.13 140.91 120.75 142.26 117.3" stroke="#DF7061" stroke-linecap="round" stroke-linejoin="round"></path><path d="M160.29 117.3L155.87 116.65" stroke="#DF7061" stroke-linecap="round" stroke-linejoin="round"></path><path d="M122.77 78.41L129.84 92.1L153.31 108.52" stroke="#DF7061" stroke-linecap="round" stroke-linejoin="round"></path><path d="M108.39 45.34L127.84 75.31C127.84 75.31 123.81 87.38 102.62 89.95L87.3301 74.51C87.3301 74.51 87.3001 48.2 108.39 45.33V45.34Z" fill="#F9F5EA"></path><path d="M112.2 51.21L127.84 75.31" stroke="#8D1A1D" stroke-linecap="round" stroke-linejoin="round"></path><path d="M114.9 90.6L129.63 168.99C131.39 175.39 130.29 182.25 126.63 187.79L86.3302 248.65L89.6402 259.44L94.9702 261.27L96.0802 265.96H81.2602L71.9302 247.28L102.49 176.33L82.6002 99.56L114.93 90.61L114.9 90.6Z" fill="#0E1011"></path><path d="M114.9 90.6L129.96 170.21C131.52 175.9 130.84 181.97 128.05 187.17L97.0502 245.01C97.0502 245.01 87.0403 249.69 76.0303 238.94L102.46 176.33L82.5703 99.56L114.9 90.61V90.6Z" fill="#071B2C"></path><path d="M58.6699 94.36L83.5499 181.33L99.02 265.95H129.12L127.95 261.28L112.02 253.85L107.2 176.07L97.4199 94.36H58.6699Z" fill="#0E1011"></path><path d="M97.5999 93.2699L111.57 172.82L120.81 248.64C120.81 248.64 102.15 257.66 91.6099 247.67L83.21 180.16L58.6699 94.3599L97.5999 93.2699Z" fill="#244F60"></path><path d="M101.67 116.45C101.67 116.45 76.1697 117.91 70.9197 137.19L64.9697 116.4L100.36 109.02L101.66 116.44L101.67 116.45Z" fill="#071B2C"></path><path d="M52.4602 39.39C52.4602 39.39 70.6002 39.28 84.3502 40.39C98.6202 41.54 108.39 45.34 108.39 45.34L120.81 106.27C120.81 106.27 115.96 111.16 93.1202 114.21C70.2702 117.26 60.0002 121.24 60.0002 121.24C52.2202 99.32 50.8702 70.85 52.4702 39.39H52.4602Z" fill="#F9F5EA"></path><path d="M70.7302 67.05L75.7403 58.21C75.7403 58.21 76.0203 57.7 76.2803 57.42C76.2803 57.42 75.8503 58.08 75.9303 59.65C76.0003 61.22 76.8803 63.6801 76.8803 63.6801C76.8803 63.6801 80.4903 73.0601 84.7403 81.2401C84.7403 81.2401 81.7402 83.36 78.7302 83.73C78.7302 83.73 76.1002 83.1 74.6002 81.22C73.1102 79.34 72.2302 76.72 72.2302 76.72C72.2302 76.72 71.2403 74.22 70.5503 71.35C69.8603 68.48 70.7302 67.03 70.7302 67.03V67.05Z" fill="#F5A618"></path><path d="M78.7197 83.75C78.7197 83.75 84.2597 83.5 91.9797 74.91C99.6997 66.32 98.2398 64.74 98.3098 61.35L101.86 69.63C101.86 69.63 103.08 71.97 102.7 74.31C102.32 76.65 101.01 78.74 99.9398 80.07C98.8698 81.4 95.2197 86.04 92.0397 86.8C88.8597 87.56 85.1097 85.87 85.1097 85.87L78.7197 83.75Z" fill="#EC6C6B"></path><path d="M95.1501 58.2299C97.8101 59.8699 98.3101 61.3499 98.3101 61.3499L98.3301 62.6599C98.5901 65.3999 97.7201 66.94 97.7201 66.94C86.1901 62.22 77.0302 64.13 77.0302 64.13C77.0302 64.13 75.9001 61.1899 75.8901 59.2799C75.8901 59.2799 75.9101 58.08 76.2701 57.44C76.2701 57.44 77.0101 55.9999 81.2001 55.6999C83.9001 55.5099 87.0301 55.8299 89.8701 56.4499C91.7001 56.8499 93.5501 57.2499 95.1501 58.2299Z" fill="#005481"></path><path d="M84.7001 53.22C76.8701 52.77 71.0201 44.33 68.3301 39.59C73.5001 39.73 79.23 39.97 84.35 40.38C87.56 40.65 90.5601 41.04 93.2501 41.49C93.4101 45.79 92.6401 53.67 84.6901 53.22H84.7001Z" fill="#D4D0C6"></path><path d="M71.7998 29.9901C72.7998 33.5801 73.0098 36.9 71.7998 39.7C71.7998 39.7 76.5598 49.61 84.4498 50.36C92.3498 51.11 90.5298 41.08 90.5298 41.08C90.5298 41.08 86.2698 36.75 91.6798 29.64L71.7998 29.9901Z" fill="#F5BCA5"></path><path d="M89.4998 39.4C81.0098 39.36 75.7298 36.47 72.4698 33.14C72.3298 32.13 72.0998 31.0701 71.7998 30.0001L91.6798 29.64C88.2598 34.13 88.7098 37.52 89.4998 39.4Z" fill="#E88378"></path><path d="M120.81 106.26C120.81 106.26 115.96 111.15 93.1099 114.21C79.8999 115.97 70.89 118.05 65.65 119.48C65.37 119.56 65.09 119.63 64.83 119.71C64.7 119.75 64.57 119.79 64.45 119.82C61.57 120.64 60.1199 121.19 59.9999 121.24H59.9899C58.9399 118.28 58.0099 115.2 57.1899 112.02C64.4499 109.31 76.4599 106.81 87.3199 105.26C108.08 102.3 115.62 101.13 118.71 96.0599L120.8 106.28L120.81 106.26Z" fill="#F9F5EA"></path><path d="M52.0698 72.7799C52.0698 72.7799 52.4598 100.13 59.9998 121.23" stroke="#8D1A1D" stroke-linecap="round" stroke-linejoin="round"></path><path d="M111.75 61.8099L120.81 106.26" stroke="#8D1A1D" stroke-linecap="round" stroke-linejoin="round"></path><path d="M65.58 68.11C65.58 68.11 61.76 70.01 60.47 71.27C59.18 72.53 60.9 74.51 60.9 74.51L66.04 72.2L65.57 68.1L65.58 68.11Z" fill="#E88378"></path><path d="M66.7102 65.2699C66.7102 65.2699 62.4602 65.6199 60.7902 66.3199C59.1202 67.0099 59.9902 69.4899 59.9902 69.4899L65.6202 69.2499L66.7002 65.2699H66.7102Z" fill="#E88378"></path><path d="M52.4599 39.3899C52.4599 39.3899 28.5899 39.07 12.6299 44.28C-0.100133 48.44 -3.72016 64.5899 9.53984 70.8299C22.8098 77.0699 63.8999 65.67 63.8999 65.67C63.8999 65.67 66.2599 66.63 65.1299 70.92L63.2699 74.0799C62.4799 75.7399 63.2499 77.72 64.9499 78.42L70.9299 71.0799C74.2099 67.0499 75.5899 61.73 74.3899 56.68C73.6899 53.75 72.1599 50.9399 69.0599 49.4599C60.8199 45.5299 52.8498 47.23 52.8498 47.23L52.4798 39.3899H52.4599Z" fill="#F5BCA5"></path><path d="M52.46 39.39L29.48 39.38L33.82 49.16L52.83 47.23L52.46 39.39Z" fill="#F9F5EA"></path><path d="M33.8198 49.16L21.9697 50.36" stroke="#DF7061" stroke-linecap="round" stroke-linejoin="round"></path><path d="M23.8101 48.0199L28.2001 49.7299" stroke="#DF7061" stroke-linecap="round" stroke-linejoin="round"></path><path d="M63.8999 65.6699C63.8999 65.6699 66.1499 64.7699 66.0499 62.7899" stroke="#DF7061" stroke-linecap="round" stroke-linejoin="round"></path><path d="M65.6198 69.24L63.2699 74.07C63.2699 74.07 62.0099 77.46 64.9499 78.41L70.9298 71.07" stroke="#DF7061" stroke-linecap="round" stroke-linejoin="round"></path><path d="M9.09003 45.87C9.09003 45.87 -1.72997 51.76 2.03003 63.33C5.79003 74.89 25.04 72.6 25.04 72.6C35.41 71.58 42.53 70.45 42.53 70.45" stroke="#DF7061" stroke-linecap="round" stroke-linejoin="round"></path><path d="M29.48 39.38L52.46 39.39" stroke="#8D1A1D" stroke-linecap="round" stroke-linejoin="round"></path><path d="M92.22 31.7699C94.4236 31.7699 96.21 29.9835 96.21 27.7799C96.21 25.5763 94.4236 23.7899 92.22 23.7899C90.0164 23.7899 88.23 25.5763 88.23 27.7799C88.23 29.9835 90.0164 31.7699 92.22 31.7699Z" fill="#E88378"></path><path d="M70.9202 22.12C73.1238 22.12 74.9102 20.3336 74.9102 18.13C74.9102 15.9264 73.1238 14.14 70.9202 14.14C68.7165 14.14 66.9302 15.9264 66.9302 18.13C66.9302 20.3336 68.7165 22.12 70.9202 22.12Z" fill="#E88378"></path><path d="M96.06 21.85C93.59 28.07 88.86 39.99 76.79 35.2C64.72 30.41 69.45 18.49 71.92 12.27C74.39 6.05005 81.79 3.15003 88.46 5.79003C95.13 8.43003 98.53 15.62 96.06 21.85Z" fill="#F5BCA5"></path><mask id="mask0_13514_4450" style="mask-type:luminance" maskUnits="userSpaceOnUse" x="68" y="4" width="29" height="33"><path d="M96.06 21.85C93.59 28.07 88.86 39.99 76.79 35.2C64.72 30.41 69.45 18.49 71.92 12.27C74.39 6.05005 81.79 3.15003 88.46 5.79003C95.13 8.43003 98.53 15.62 96.06 21.85Z" fill="white"></path></mask><g mask="url(#mask0_13514_4450)"><path d="M74.86 26.98C74.86 30.25 72.21 32.91 68.93 32.91C65.65 32.91 63 30.26 63 26.98C63 23.7 65.65 21.05 68.93 21.05C72.21 21.05 74.86 23.7 74.86 26.98Z" fill="#F3A797"></path><path d="M97.8336 37.5552C98.5003 33.4615 95.7222 29.6024 91.6285 28.9357C87.5347 28.269 83.6756 31.0471 83.0089 35.1409C82.3422 39.2346 85.1204 43.0937 89.2141 43.7604C93.3078 44.4271 97.1669 41.649 97.8336 37.5552Z" fill="#F3A797"></path></g><path d="M69.4801 19.6C69.4801 19.6 67.1701 15.26 69.4801 12.33L68.3301 13.06C68.3301 13.06 66.6701 8.36 72.8401 5.53H71.3801C71.3801 5.53 79.6501 -1.46999 87.7301 2.48001L88.4001 0L89.1601 2.55002L92.6601 2.64001L90.9001 3.64001C93.6901 5.10001 99.5701 8.20002 100.03 16.71L98.6701 16.29C98.6701 16.29 100.55 20.26 98.8801 24.55L97.3101 23.78C97.3101 23.78 95.6501 28 92.3501 29.62L93.2801 24.76C93.2801 24.76 84.0601 18.38 86.3501 13.36C86.3501 13.36 83.4801 18.11 71.8101 15.87L69.4901 19.58L69.4801 19.6Z" fill="#071B2C"></path><path d="M81.4202 21.0399L79.5003 24.8699C78.2203 27.2199 80.4702 27.5099 80.4702 27.5099" stroke="#DF7061" stroke-linecap="round" stroke-linejoin="round"></path><path d="M78.2502 29.26H83.4702C83.4702 29.26 83.9302 31.68 81.1302 31.77C78.3402 31.86 78.2402 29.26 78.2402 29.26H78.2502Z" fill="#B92727"></path><path d="M77.0401 21.8C77.0401 22.48 76.7201 23.0399 76.3301 23.0399C75.9401 23.0399 75.6201 22.49 75.6201 21.8C75.6201 21.11 75.9401 20.5599 76.3301 20.5599C76.7201 20.5599 77.0401 21.11 77.0401 21.8Z" fill="#071B2C"></path><path d="M85.3302 25.17C84.8502 25.65 84.2302 25.82 83.9502 25.54C83.6702 25.26 83.8402 24.64 84.3202 24.16C84.8002 23.68 85.4202 23.51 85.7002 23.79C85.9802 24.07 85.8102 24.69 85.3302 25.17Z" fill="#071B2C"></path><path d="M75.9102 17.91C75.9102 17.91 78.1302 17.43 79.1102 19.44C79.1102 19.44 76.2802 20.87 75.9102 17.91Z" fill="#071B2C"></path><path d="M84.8198 21.24C84.8198 21.24 86.8498 20.27 88.2298 22.75C88.2298 22.75 85.4898 23.58 84.8198 21.24Z" fill="#071B2C"></path><path d="M34.2898 58.9L38.8299 65.89C38.8299 65.89 45.7899 59.82 46.3099 47.9L34.8899 49.17C34.8899 49.17 30.7998 52.7 34.2998 58.91L34.2898 58.9Z" fill="#E88378"></path><path d="M46.3499 30.5399C46.3499 30.5399 49.31 25.7899 48.57 22.8999C47.83 19.9999 36.72 16.4899 34.29 26.7199C34.29 26.7199 29.0899 26.8999 28.9699 36.8299C28.8499 46.7499 31.74 59.4499 31.74 59.4499C31.74 59.4499 44.88 52.29 46.48 42.92C48.08 33.55 46.3499 30.5399 46.3499 30.5399Z" fill="#F4A138"></path><path d="M46.3499 30.5399C46.3499 30.5399 43.5699 28.2299 40.9199 27.8899C40.9199 27.8899 37.4099 24.8199 40.9199 23.4499L40.2299 22.76C40.2299 22.76 41.3699 21.99 42.8499 21.99V20.8799C42.8499 20.8799 45.0799 20.8099 48.1199 22.0999C48.3399 22.3599 48.4899 22.6299 48.5599 22.8899C49.2999 25.7899 46.3399 30.5299 46.3399 30.5299L46.3499 30.5399Z" fill="#EE7D2B"></path><path d="M27.7599 33.87C27.7599 33.87 29.4898 28.6899 33.0398 28.3899V29.81C33.0398 29.81 35.2699 28.4899 36.3899 28.3899C37.5099 28.2899 39.3599 30.55 39.3599 30.55L40.0499 28.8C40.0499 28.8 42.5899 28.83 44.6199 32.93C46.6499 37.03 46.5499 47.69 41.8799 53.78C37.2099 59.87 31.4198 64.34 31.4198 64.34C31.4198 64.34 27.4599 52.56 27.7599 33.88V33.87Z" fill="#22544A"></path><path d="M45.5002 29.9401C45.5002 29.9401 44.8002 25.7 46.9702 25.45C49.1402 25.2 47.7502 28.97 47.7502 28.97L45.5002 29.9401Z" fill="white"></path><path d="M45.4998 29.9399C45.4998 29.9399 45.2499 26.7599 47.5199 26.7099C49.7999 26.6599 49.3098 32.6399 49.3098 32.6399C49.1798 31.2599 47.1298 31.2699 45.4998 29.9399Z" fill="#E44647"></path><path d="M45.49 25.08C45.49 25.83 44.88 26.44 44.13 26.44C43.38 26.44 42.77 25.83 42.77 25.08C42.77 24.33 43.38 23.72 44.13 23.72C44.88 23.72 45.49 24.33 45.49 25.08Z" fill="white"></path><path d="M42.8799 52.2799V52.2999C42.5799 52.8199 42.2499 53.3099 41.8899 53.7699C37.2199 59.8699 31.4299 64.3399 31.4299 64.3399C31.4299 64.3399 28.4699 55.5399 27.8599 41.1099L30.5299 35.3199L32.9099 40.1799L39.3699 35.0299C39.3699 35.0299 42.7299 37.7999 41.3999 43.6199L44.0299 40.0899C44.0299 40.0899 44.1899 46.3699 42.8899 52.2899L42.8799 52.2799Z" fill="#318074"></path><path d="M43.0898 25.1099L44.9098 25.5399C44.9098 25.5399 44.8298 23.2099 43.0898 25.1099Z" fill="#071B2C"></path><path d="M39.73 46.35C39.73 46.35 41.35 50.4 36.82 54.38L37.5 49.67C37.5 49.67 32.93 51.9 32.79 56.36C32.79 56.36 30.78 50.52 35.2 47.17V48.54C35.2 48.54 38.23 46.39 39.73 46.35Z" fill="#22544A"></path><path d="M31.76 43.7799C31.76 43.7799 31.21 47.6999 30.75 50.6699C30.75 50.6699 28.01 44.7299 31.76 43.7799Z" fill="#22544A"></path><path d="M31.42 64.33C31.42 64.33 27.35 51.87 27.76 33.86" stroke="#0F332C" stroke-linecap="round" stroke-linejoin="round"></path><path d="M38.8203 26.72C36.6303 26.12 34.2803 26.72 34.2803 26.72C34.2803 26.72 34.9102 25.28 37.4902 25.08" stroke="#B92C2B" stroke-linecap="round" stroke-linejoin="round"></path><path d="M43.5303 19.98C43.5303 19.98 49.2402 21.05 48.6902 24.37" stroke="#B92C2B" stroke-linecap="round" stroke-linejoin="round"></path><path d="M45.5 29.94C45.5 29.94 45.47 26.51 47.52 26.71" stroke="#B92C2B" stroke-linecap="round" stroke-linejoin="round"></path><path d="M39.3701 35.01C39.3701 35.01 42.9601 37.54 41.4001 43.6" stroke="#0F332C" stroke-linecap="round" stroke-linejoin="round"></path><path d="M45.5 35.74C45.5 35.74 48.11 50.04 38.02 58.26" stroke="#0F332C" stroke-linecap="round" stroke-linejoin="round"></path><path d="M515.35 245.28L508.14 249.65C508.14 249.65 508.93 252.6 509.89 254.34C510.95 256.26 512.16 258.33 512.49 260.34C512.73 261.83 513.39 263.31 514.21 264.65C515.39 266.59 516.44 267.94 518.26 267.25C520.08 266.56 517.42 261.17 517.93 260.57C518.44 259.98 520.33 260.45 523.72 261.97C524.04 262.11 530.29 266.5 532.34 265.58C534.17 264.76 532.8 262.49 532.8 262.49C532.8 262.49 533.92 263.69 534.37 262.6C534.82 261.51 533.56 258.01 529.93 255.22C525.81 252.04 522.75 251.27 520.98 250.16C519.21 249.05 515.34 245.28 515.34 245.28H515.35Z" fill="#F7A68B"></path><path d="M532.93 263.13C532.93 263.13 528.86 258.91 525.54 257.75" stroke="#D47960" stroke-width="0.75" stroke-miterlimit="10"></path><path d="M499 189.94L504.09 216.25C504.09 216.25 507.86 225.55 509.97 230.53C512.08 235.51 516.71 248.07 516.71 248.07L510.17 252.47C510.17 252.47 503.94 246.88 499.4 239.93C494.86 232.97 492.19 226.59 490.25 221.74C488.31 216.9 483.82 199.1 483.82 199.1L499 189.94Z" fill="#F7A68B"></path><path d="M493.04 177.18C495.16 178.27 498.92 181.8 501.26 188.53C503.13 193.9 503.21 207.77 503.21 207.77C503.21 207.77 499.42 208.86 496.09 209.86C492.75 210.85 487.17 214.65 487.17 214.65C487.17 214.65 484.8 206 483.49 197.07C482.18 188.14 490.93 176.1 493.04 177.18Z" fill="#F9F5EA"></path><path d="M507.17 259.72C504.16 254.22 495.5 243.81 495.5 243.81C492.59 244.68 489.56 247.94 486.41 251.16C483.64 249.7 478.61 249.27 473.94 248.97C470.22 248.73 457.56 249.91 457.56 249.91C457.56 249.91 453.87 251.31 453.05 255.08C452.23 258.86 454.15 262.08 456.61 263.9C459.08 265.72 471.21 272.49 483.5 278.16C491.22 281.72 501.43 281.26 505.51 276.67C509.59 272.08 510.18 265.23 507.17 259.72Z" fill="#F7A68B"></path><path d="M487.55 255.6C493.24 249.78 499.33 247.24 499.33 247.24C499.33 247.24 493.94 239.27 490.75 236.14C484.78 230.27 478.62 226.7 478.62 226.7C478.62 226.7 453.13 209.98 445.15 226.66C438.27 241.04 448.38 251.89 451.23 253.85C454.86 256.33 461.62 259.72 464.75 261.22C471.68 264.54 478.44 268.36 478.44 268.36C478.44 268.36 483.3 259.97 487.56 255.62L487.55 255.6Z" fill="#6E5E5F"></path><path d="M436.54 253.3C436.54 253.3 434.12 254.38 432.26 255.89C430.71 257.15 427.06 258.68 425.95 260.29C424.84 261.9 424.62 265.08 427.98 265.91C431.34 266.75 435.49 266.86 438.41 268.46C441.33 270.07 442.93 271.83 444.83 271.69C446.72 271.55 450.39 261.17 450.39 261.17C450.39 261.17 445.23 257.54 444.1 256.15C442.96 254.76 440.27 250.29 436.56 253.3H436.54Z" fill="#C36A37"></path><path d="M425.28 262.94C425.28 262.94 426.24 260.68 429.02 259.29C431.8 257.91 437.42 255.38 439.01 252.73" stroke="#9A3C21" stroke-width="0.75" stroke-miterlimit="10"></path><path d="M492.72 271.79C490.19 266.01 482.47 254.79 482.47 254.79C479.49 255.36 476.19 258.29 472.77 261.17C470.13 259.44 465.16 258.49 460.52 257.72C456.83 257.11 444.11 256.99 444.11 256.99C444.11 256.99 440.31 258 439.16 261.67C438.02 265.34 439.65 268.74 441.95 270.8C444.25 272.86 455.76 280.83 467.53 287.71C474.92 292.04 485.14 292.62 489.61 288.47C494.08 284.32 495.26 277.57 492.73 271.79H492.72Z" fill="#F7A68B"></path><path d="M451.8 257.14C447.81 257.01 444.1 256.98 444.1 256.98C444.1 256.98 440.3 257.99 439.15 261.66C438.01 265.33 439.64 268.73 441.94 270.79C442.79 271.55 444.91 273.13 447.83 275.15C447.23 270.53 447.08 262.54 451.79 257.14H451.8Z" fill="#FAE1C8"></path><path d="M463.33 277.43C463.33 277.43 466.74 278.73 471.54 283.82" stroke="#D47960" stroke-width="0.75" stroke-miterlimit="10"></path><path d="M467.44 280.29C467.44 280.29 468.61 282.59 469.64 284.16" stroke="#D47960" stroke-width="0.75" stroke-miterlimit="10"></path><path d="M473.52 265.69C479.69 260.48 485.99 258.58 485.99 258.58C485.99 258.58 481.31 250.11 478.4 246.67C472.95 240.22 467.12 236.05 467.12 236.05C467.12 236.05 443.15 216.84 433.75 232.61C425.65 246.21 434.78 258.02 437.45 260.25C440.85 263.09 447.3 267.14 450.29 268.95C456.91 272.96 463.32 277.44 463.32 277.44C463.32 277.44 468.89 269.6 473.52 265.7V265.69Z" fill="#6E5E5F"></path><path d="M485.99 258.58C485.99 258.58 489.92 263.27 492.47 268.86C495.4 275.29 494.03 280.05 494.03 280.05" stroke="#D47960" stroke-width="0.75" stroke-miterlimit="10"></path><path d="M473.1 241.86C473.1 241.86 483.08 250.42 485.92 257.49" stroke="#523D43" stroke-width="0.75" stroke-miterlimit="10"></path><path d="M481.42 246.96C483.94 244.17 483.1 240.48 483.1 240.48C483.1 240.48 484.81 236.77 485.1 233.57C485.39 230.3 485.92 229.66 487.15 225.16C488.83 219.04 494.57 206.57 495.63 201.75C496.7 196.94 498.27 184.89 496.58 180.61C494.89 176.33 483.68 172.88 477.84 170.35C472 167.81 463.25 166.35 453.51 174.14C446.09 180.08 444.23 189.49 440.85 201.29C439.58 205.72 434.71 216.81 433.39 224.99C432.37 231.29 433.04 234.37 434.97 237.46C436.9 240.55 441.88 247.43 455.92 251.29C470.82 255.39 479.33 249.27 481.42 246.95V246.96Z" fill="#F9F5EA"></path><path d="M491.83 212.08C491.83 212.08 496.25 201.78 496.91 194.39" stroke="#C85828" stroke-width="0.75" stroke-miterlimit="10"></path><path d="M457.36 232.71C459.94 238.2 475.33 242.9 482.76 240.64" stroke="#C85828" stroke-width="0.75" stroke-miterlimit="10"></path><path d="M466.42 206.12C466.68 206.75 473.02 236.18 481.24 232.93" stroke="#C85828" stroke-width="0.75" stroke-miterlimit="10"></path><path d="M474.08 199.58L475.89 192.95C475.89 192.95 475.99 192.56 476.1 192.36C476.1 192.36 475.94 192.86 476.14 194.01C476.34 195.16 477.08 196.96 477.08 196.96C477.08 196.96 480.02 203.79 483.18 209.72C483.18 209.72 481.77 211.35 480.17 211.7C480.17 211.7 478.67 211.3 477.66 209.95C476.65 208.6 475.91 206.69 475.91 206.69C475.91 206.69 475.11 204.87 474.44 202.78C473.77 200.68 474.09 199.59 474.09 199.59L474.08 199.58Z" fill="#FAAB18"></path><path d="M480.16 211.7C480.16 211.7 483.15 211.39 486.46 204.88C489.77 198.37 488.81 197.24 488.5 194.74L491.29 200.76C491.29 200.76 492.2 202.46 492.23 204.19C492.26 205.92 491.77 207.49 491.33 208.5C490.89 209.51 489.38 213.01 487.73 213.64C486.08 214.27 483.86 213.12 483.86 213.12L480.16 211.7Z" fill="#F16C6B"></path><path d="M486.46 192.51C488.07 193.65 488.5 194.73 488.5 194.73L488.65 195.69C489.08 197.7 488.76 198.86 488.76 198.86C482 195.65 477.21 197.27 477.21 197.27C477.21 197.27 476.29 195.13 476.09 193.72C476.09 193.72 475.97 192.84 476.1 192.35C476.1 192.35 476.36 191.27 478.6 190.96C480.05 190.76 481.78 190.92 483.4 191.31C484.44 191.56 485.49 191.81 486.46 192.5V192.51Z" fill="#005486"></path><path d="M499.38 250.95C499.38 250.95 495.36 243.9 491.51 238.54C486.86 232.07 481.65 225.12 480.26 222.41C477.73 217.45 470.11 198.53 470.11 198.53C470.11 198.53 465.81 195.88 461.17 197.99C456.53 200.1 453.94 203.26 453.1 206.25C455.19 213.26 461.05 226.53 466.45 234.35C468.85 237.83 473.51 243.32 478.8 248.69C485.39 255.39 493.43 259.41 493.43 259.41L499.38 250.95Z" fill="#F7A68B"></path><path d="M453.56 215.09C453.56 215.09 459.93 214 465.07 212.6C470.21 211.21 474.66 208.27 474.66 208.27C474.66 208.27 467.11 175.47 460.61 174.29C453.01 172.91 444.22 178.57 448.67 202.31C448.97 203.9 453.56 215.08 453.56 215.08V215.09Z" fill="#F9F5EA"></path><path d="M447.53 188.18C447.53 188.18 446.71 200.87 454.77 214.11" stroke="#C85828" stroke-width="0.75" stroke-miterlimit="10"></path><path d="M474.66 208.28C474.66 208.28 469.59 187.8 466.28 182.82" stroke="#C85828" stroke-width="0.75" stroke-miterlimit="10"></path><path d="M509.7 261.21C509.46 260.41 509.07 259.7 509.07 259.7C509.07 259.7 510.06 261.04 510.82 261.3C511.58 261.56 512.32 260.97 512.67 259.95C513.01 258.93 511.72 256.89 511.72 256.89C511.72 256.89 512.2 257.12 512.74 257.55C513.58 258.22 514.23 258.93 515.06 258.15C516.25 257.03 514.97 255.01 513.9 253.19C512.83 251.38 510.71 250.22 508.85 249.18C507.01 248.15 503.08 248 500.38 247.98C499.08 247.98 494.04 247.29 490.83 248.95C487.62 250.61 486.61 255.35 488.02 256.03C489.43 256.71 492.12 260.1 494.52 260.97C495.51 261.81 499.08 262.45 500.17 262.97C502.61 264.14 503.1 266.2 504.24 266C505.91 265.72 505.83 264.54 505.66 263.72C505.49 262.9 505.13 261.87 505.13 261.87C505.13 261.87 505.77 262.12 506.11 262.42C506.88 263.1 507.49 264.07 508.31 263.98C509.77 263.83 509.95 261.99 509.71 261.19L509.7 261.21Z" fill="#F7A68B"></path><path d="M501.15 258.67C502.87 259.3 505.45 260.78 505.49 262.14C505.53 263.5 506.36 265.28 504.7 265.99C503.04 266.7 502.14 265.36 501.39 263.99C500.64 262.62 499.03 262.03 496.68 261.7C494.33 261.36 492.38 260.26 491.13 258.74C489.88 257.22 487.58 255.93 487.58 255.93" stroke="#D47960" stroke-width="0.75" stroke-miterlimit="10"></path><path d="M505.45 261.55C505.45 261.55 507.3 264.47 508.77 263.98C508.77 263.98 511.13 263.12 509.08 259.7C509.08 259.7 508.36 258.46 507.09 257.23C505.82 256 503.03 255.19 503.03 255.19" stroke="#D47960" stroke-width="0.75" stroke-miterlimit="10"></path><path d="M504.01 247.85C504.01 247.85 509.87 248.86 512.21 251.68C514.55 254.5 515.84 258.04 514.99 259.01C513.17 261.08 512.49 258.71 511.89 257.65C511.28 256.59 510.54 255.26 509.27 254.03C508 252.8 505.21 251.99 505.21 251.99" stroke="#D47960" stroke-width="0.75" stroke-miterlimit="10"></path><path d="M509.86 261.04C509.86 261.04 512.49 262.38 512.71 259.38" stroke="#D47960" stroke-width="0.75" stroke-miterlimit="10"></path><path d="M467.46 170.8C468.19 170.27 469.84 169 471.87 169.55L481.44 158.18L490.66 165.34L486.89 175.91C489.37 177.34 492.72 179.92 490.38 182.45C486.89 186.24 480.99 185.5 474.44 180.52C469.17 176.51 464.84 172.7 467.46 170.8Z" fill="#F7A68B"></path><path d="M490.65 165.33L486.97 175.65C483.22 175.09 477.46 173.25 473.61 167.48L481.44 158.18L490.66 165.34L490.65 165.33Z" fill="#D47960"></path><path d="M487.43 180.58C487.43 180.58 485.16 179.39 484.04 181.5" stroke="#D47960" stroke-width="0.75" stroke-miterlimit="10"></path><path d="M480.79 181.17C480.79 181.17 480.8 179.97 479.63 178.92C478.46 177.87 475.8 175.99 473.56 175.05" stroke="#D47960" stroke-width="0.75" stroke-miterlimit="10"></path><path d="M492.62 135.04C494.79 135.02 500.29 137.54 503.86 143.87C505.42 146.63 506.32 150.1 505.71 154.34C505.11 158.48 503.05 161.45 500.73 162.56C498.41 163.67 487.35 164.22 481.96 154C476.58 143.78 490.45 135.05 492.62 135.03V135.04Z" fill="#69471F"></path><path d="M484.79 140.39C489.4 136.78 494.1 136.91 498.61 140.49C501.67 142.92 503.03 149.7 502.57 154.26C502.37 156.21 501.99 161.6 500.48 166.15C499.15 170.16 496.55 173.7 491.93 173.72C486.07 173.74 482.02 170.4 479.51 166.97C474.02 159.47 477.37 146.21 484.79 140.39Z" fill="#F7A68B"></path><path d="M490.52 160.16C490.36 160.84 489.73 161.24 489.1 161.05C488.48 160.87 488.1 160.18 488.25 159.5C488.41 158.82 489.04 158.43 489.67 158.61C490.29 158.79 490.67 159.48 490.52 160.16Z" fill="#542F36"></path><path d="M498.94 161.89C498.78 162.57 498.15 162.96 497.53 162.78C496.9 162.6 496.52 161.91 496.68 161.23C496.84 160.55 497.47 160.16 498.1 160.34C498.72 160.52 499.1 161.21 498.95 161.89H498.94Z" fill="#542F36"></path><path d="M495.51 157.5C495.02 159.2 493.96 160.81 494.43 162.61C494.6 163.61 495 164.41 494.74 165.51C494.1 166.62 492.59 165.64 491.88 165.09C492.34 165.19 492.79 165.29 493.22 165.35C493.63 165.44 494.16 165.35 494.06 165.26C494.2 164.7 493.81 163.38 493.71 162.75C493.23 160.87 494.53 159.02 495.5 157.5H495.51Z" fill="#D47960"></path><path d="M486.14 155.5C486.68 154.89 490.26 154.14 491.92 155.24C492.53 155.64 492.23 156.74 491.53 156.73C490.73 156.72 489.94 156.64 489.14 156.62C488.34 156.59 487.58 156.88 486.78 156.84C486.22 156.81 485.59 156.11 486.13 155.5H486.14Z" fill="#69471F"></path><path d="M496.65 157.57C496.75 157.2 497.33 156.76 498.15 156.88C498.97 157 500.41 157.98 500.78 158.79C501.15 159.6 500.71 160.22 500.03 159.82C499.47 159.49 498.88 159 498.27 158.79C497.92 158.67 497.55 158.65 497.21 158.45C496.83 158.22 496.55 157.94 496.65 157.58V157.57Z" fill="#69471F"></path><path d="M486.54 162.9C487.22 162.53 488.17 162.74 488.73 163.67C489.26 164.54 489.49 165.48 490.15 165.92C490.81 166.36 491.4 166.57 492.2 167.15C492.99 167.73 493.11 169.4 491.12 169.6C489.13 169.8 486.65 167.99 486.01 165.51C485.71 164.34 485.94 163.24 486.55 162.91L486.54 162.9Z" fill="#D75446"></path><path d="M489.91 167.37C488.22 166.16 486.79 164.29 486.88 162.77C487.51 162.62 488.25 162.89 488.72 163.67C489.25 164.54 489.48 165.48 490.14 165.92C490.8 166.36 491.39 166.57 492.19 167.15C492.32 167.24 492.43 167.37 492.52 167.51C492.09 167.98 491.29 168.35 489.91 167.37Z" fill="white"></path><path d="M502.75 145.52C502.33 143.07 500.82 140.3 499.33 138.31C497.85 136.31 493.22 132.73 484.91 134C480.74 134.64 476.96 137.09 474.26 140.47C471.88 143.45 471.09 149.98 472.14 153.81C473.19 157.63 474.31 159.01 475.05 160.35C475.8 161.69 475.67 163.17 476.77 163.28C477.86 163.39 479.05 160.23 479.05 160.23C479.05 160.23 480.11 156.56 480.85 156.79C482.83 157.41 485.87 152.16 485.87 152.16C485.87 152.16 488.98 152.44 491.52 152.6C494.06 152.76 496.67 152.22 498.4 151.25C500.13 150.28 503.16 147.97 502.74 145.52H502.75Z" fill="#69471F"></path><path d="M484.43 152.02C484.43 152.02 491.27 155.75 497.36 152.96C503.45 150.17 503.27 146.78 502.44 144.32" stroke="#69471F" stroke-width="0.75" stroke-miterlimit="10"></path><path d="M488.47 135.23C488.47 135.23 493.91 128.09 488.07 123.86C483.58 120.61 477.93 124.28 478.36 129.4C478.79 134.52 482.69 136.36 482.69 136.36L488.47 135.22V135.23Z" fill="#69471F"></path><path d="M481.32 135.12C481.32 135.12 478.56 132.06 476.12 131.53" stroke="#69471F" stroke-width="0.75" stroke-linecap="round" stroke-linejoin="round"></path><path d="M482.29 135.44C482.29 135.44 478.79 133.36 474.75 134.55" stroke="#69471F" stroke-width="0.75" stroke-linecap="round" stroke-linejoin="round"></path><path d="M477.07 155.07C477.5 153.47 478.35 151.75 479.86 152.17C481.37 152.59 482.04 154.91 482.09 156.42C482.15 157.93 481.76 160.73 480.64 161.04C479.68 161.3 478.81 160.75 478.22 159.98C476.91 158.32 476.65 156.67 477.07 155.07Z" fill="#F7A68B"></path><path d="M479.72 155.02C479.72 155.02 481.59 155.81 480.51 159.94" stroke="#D47960" stroke-width="0.75" stroke-miterlimit="10"></path><path d="M542.44 274.99C542.22 275.3 539.92 278.04 541.79 279.65C543.66 281.26 545.95 279.82 546.58 278.73C547.21 277.64 549.77 274.75 549.77 274.75L542.44 274.99Z" fill="#D2C6BB"></path><path d="M542.07 279.51C542.07 279.51 541.82 277.91 542.98 277.23" stroke="#7C6167" stroke-width="0.75" stroke-miterlimit="10"></path><path d="M543.66 280.04C543.66 280.04 543.41 278.44 544.57 277.76" stroke="#7C6167" stroke-width="0.75" stroke-miterlimit="10"></path><path d="M574.52 257.89C573.61 253.23 570.89 249.15 566.43 247.33C557.14 243.55 549.06 247.3 546.67 247.72C544.78 248.05 542.52 248.25 540.03 247.21C537.86 246.3 533.86 245.29 533.86 245.29L516.96 253.39C516.96 253.39 515.35 255.13 514.49 259.4C513.95 262.06 514.27 265.8 513.82 267.37C513.37 268.95 512.02 270.8 512.21 273.37C512.35 275.25 513.49 277.8 515.64 278.48C517.79 279.16 518.59 278.99 520.04 279.77C521.38 280.49 522.65 282 523.66 281.84C526.95 281.32 526.8 278.57 526.8 278.57L527.49 278.59C527.49 278.59 526.92 280.69 528.83 281.19C531.59 281.91 533.06 280.21 533.83 279.7C534.59 279.19 536.01 278.25 536.87 278.01C538.1 277.66 540.95 277.15 542.12 276.9C542.73 276.77 545.06 276.56 547.14 276.38C546.68 277.1 546.34 277.82 546.2 278.48C545.91 279.84 546.64 280.38 547.71 280.69C548.91 281.03 550.82 280.45 551.86 279.73C553.83 278.36 557.15 277.57 559.5 277.16C560 277.07 560.96 276.85 562.16 276.48C560.14 277.45 558.17 278.54 556.77 280.09C554.15 282.97 552.39 287.15 554.99 288.95C557.59 290.75 561.05 286.73 562.17 285.22C564 282.75 567.92 280.55 571.25 278.73C574.76 276.81 577.07 274.76 577.94 269.61C578.63 265.54 575.99 260.1 574.54 257.91L574.52 257.89Z" fill="#F7FAF7"></path><path d="M514.23 241.02C512.29 240.56 509.7 241.06 508.27 242.53C508.05 242.76 508.4 243.13 508.64 242.93C510.16 241.73 512.38 241.62 514.21 241.4C514.43 241.37 514.44 241.07 514.23 241.02Z" fill="#553B45"></path><path d="M514.21 242.1C513.43 242.17 512.89 242.29 512.18 242.64C511.28 243.08 510.71 243.61 510.01 244.33C509.73 244.62 510.07 245.08 510.41 244.83C511.1 244.33 511.76 243.8 512.5 243.37C513.09 243.02 513.72 242.81 514.31 242.47C514.5 242.36 514.43 242.08 514.2 242.1H514.21Z" fill="#553B45"></path><path d="M524.41 234.24C524.41 234.24 526.74 231.2 527.94 231.13C529.13 231.06 529.68 232.31 530.24 236.74L524.41 234.24Z" fill="#D2C6BB"></path><path d="M516.88 235.64C516.88 235.64 520.93 233.16 524.42 233.44C529.2 233.82 533.39 237.37 534.55 239.3C535.71 241.24 537.04 246.89 533.54 250.36C530.04 253.83 517.22 255.7 517.22 255.7C517.22 255.7 513.43 251.52 511.68 247.29C510.97 245.57 510.7 243.86 510.83 242.34C511.04 239.95 512.14 237.82 513.14 237.07C514.14 236.31 516.88 235.64 516.88 235.64Z" fill="#F7FAF7"></path><path d="M513.32 239.78C513.32 239.78 512.97 241.79 514.12 243.88" stroke="#553B45" stroke-width="0.75" stroke-miterlimit="10"></path><path d="M511.74 243.08C511.74 243.08 512.58 244.6 514.34 243.97C516.1 243.34 516.38 241.58 516.38 241.58" stroke="#553B45" stroke-width="0.75" stroke-miterlimit="10"></path><path d="M512.38 237.77C513.19 237.16 515.27 237.54 515.4 238.15C515.53 238.76 514.06 240.02 513.24 239.94C512.42 239.86 511.58 238.39 512.38 237.78V237.77Z" fill="#F58E61"></path><path d="M528.18 235.61C528.18 235.61 534 231.07 536.22 231.11C538.55 231.16 539.09 234.67 538.42 237.33C537.75 240 534.42 245.2 534.42 245.2L528.18 235.61Z" fill="#F7FAF7"></path><path d="M536.73 233.63C535.76 233.14 531.31 237.65 531.31 237.65C531.31 237.65 532.28 238.14 533.23 239.33C534.18 240.52 534.54 241.84 534.54 241.84C534.54 241.84 535.93 239.81 536.57 237.84C537.21 235.88 537.7 234.12 536.73 233.63Z" fill="#F69F9B"></path><path d="M534.32 236.78C533.33 236.03 532.29 236.44 531.22 236.75C531.18 236.76 531.15 236.79 531.11 236.81C531.08 237.24 531.06 237.67 531.04 238.1C531.04 238.1 531.05 238.1 531.06 238.1C531.17 238.06 532.13 238.18 532.47 238.18C533.26 238.18 533.7 238.34 534.27 238.47C534.43 238.51 534.57 238.33 534.45 238.2C534.06 237.76 533.54 237.41 532.96 237.3C533.38 237.25 533.78 237.16 534.2 237.14C534.39 237.13 534.48 236.91 534.32 236.79V236.78Z" fill="#F7FAF7"></path><path d="M528.1 241.91C527.09 241.17 525.84 240.87 524.65 240.56C523.35 240.22 522.23 240.06 520.93 240.42C520.57 240.52 520.68 241.03 521.05 240.98C523.44 240.66 525.68 241.92 527.97 242.31C528.2 242.35 528.26 242.03 528.1 241.91Z" fill="#553B45"></path><path d="M526.55 244.28C524.94 242.8 523.01 242.06 520.9 241.56C520.51 241.4 520.32 242.01 520.7 242.17C520.68 242.14 520.65 242.11 520.63 242.07C520.65 242.11 520.68 242.14 520.71 242.16L520.72 242.17C520.76 242.2 520.8 242.21 520.84 242.22C522.68 243 524.5 243.78 526.32 244.62C526.51 244.71 526.7 244.41 526.55 244.27V244.28Z" fill="#553B45"></path><path d="M524.46 236.69C523.46 234.84 520.34 234.82 518.96 236.11C518.75 236.3 518.91 236.74 519.18 236.65C519.6 236.65 519.93 236.5 520.35 236.44C520.81 236.38 521.35 236.47 521.81 236.53C522.63 236.63 523.36 237.1 524.17 237.19C524.44 237.22 524.59 236.94 524.46 236.7V236.69Z" fill="#553B45"></path><path d="M524.9 261.66C524.52 262.61 524.16 263.51 523.68 264.43C522.94 265.87 521.64 263.3 521.29 262.99C521.05 262.77 520.62 262.73 520.43 263.06C520.29 263.3 519.79 264.32 519.93 264.57C519.14 263.13 519.01 260.9 519.56 259.41C519.76 258.88 518.97 258.65 518.74 259.14C518.37 259.94 517.01 261.05 517.28 261.85C516.69 260.15 517.81 256.84 518.93 255.55C519.15 255.3 518.85 254.94 518.58 255.16C516.92 256.51 514.63 261.33 516.7 263.04C516.87 263.18 517.17 263.18 517.35 263.07C517.74 262.85 518.05 262.5 518.33 262.09C518.35 263.4 518.63 264.72 519.34 265.44C520.34 266.47 520.72 265.37 521.03 264.44C521.58 265.37 522.06 266.48 523.41 266.2C525.08 265.85 525.59 263.05 525.45 261.69C525.42 261.38 524.99 261.42 524.9 261.66Z" fill="#D3C7B9"></path><path d="M526.62 259.73C526.43 259.67 526.23 259.84 526.28 260.03C526.36 260.37 526.55 260.66 526.62 261C526.7 261.38 526.86 261.76 527.02 262.11C527.12 262.33 527.46 262.24 527.47 262.01C527.48 261.78 527.51 261.54 527.53 261.31C527.54 261.08 527.39 260.82 527.32 260.61C527.19 260.24 527.02 259.85 526.63 259.72L526.62 259.73Z" fill="#D3C7B9"></path><path d="M528.38 258.81C528.13 258.35 527.95 257.89 527.63 257.47C527.38 257.14 526.85 257.52 527.04 257.88C527.23 258.22 527.36 258.54 527.41 258.92C527.43 259.06 527.53 259.22 527.58 259.36C527.64 259.53 527.83 259.6 527.92 259.74C527.98 259.85 528.16 259.91 528.26 259.8C528.5 259.51 528.55 259.14 528.38 258.81Z" fill="#D3C7B9"></path><path d="M522.88 278.51C522.88 278.51 524.6 279.63 524.28 281.44" stroke="#7C6167" stroke-width="0.75" stroke-miterlimit="10"></path><path d="M524.51 277.56C524.51 277.56 526.23 278.68 525.91 280.48" stroke="#7C6167" stroke-width="0.75" stroke-miterlimit="10"></path><path d="M529.66 278.04C529.66 278.04 528.19 279.31 528.94 281.24" stroke="#7C6167" stroke-width="0.75" stroke-miterlimit="10"></path><path d="M531.46 278.35C531.46 278.35 529.99 279.62 530.74 281.55" stroke="#7C6167" stroke-width="0.75" stroke-miterlimit="10"></path><path d="M548.06 277.37C548.06 277.37 546.66 278.97 547.12 280.35" stroke="#7C6167" stroke-width="0.75" stroke-miterlimit="10"></path><path d="M549.78 277.7C549.78 277.7 548.38 279.3 548.84 280.68" stroke="#7C6167" stroke-width="0.75" stroke-miterlimit="10"></path><path d="M518 270.23C518 270.23 522.82 270.78 524.84 273.75C526.86 276.72 527.01 278.25 527.01 278.25" stroke="#D3C7B9" stroke-width="0.75" stroke-miterlimit="10"></path><path d="M527.63 277.07C527.63 277.07 528.71 272.31 534.59 270.03" stroke="#D3C7B9" stroke-width="0.75" stroke-miterlimit="10"></path><path d="M547.34 276.04C547.34 276.04 548.98 273.9 551.27 272.6C553.84 271.14 556.45 269.94 556.45 269.94C556.45 269.94 551.13 262.05 553.54 258.02" stroke="#D3C7B9" stroke-width="0.75" stroke-miterlimit="10"></path><path d="M561.61 276.42C561.61 276.42 567.24 273.4 569.8 271.3C572.36 269.19 571.56 267.27 571.13 266.45" stroke="#D3C7B9" stroke-width="0.75" stroke-miterlimit="10"></path><path d="M179.96 231.14C179.96 231.14 177.63 260.2 206.12 252.88L207.54 235.45L183.14 222.76L179.97 231.14H179.96Z" fill="#2B388F"></path><path d="M208.74 151.86L191.32 183.07L181.66 244.08L179.04 242.97L174.2 243.05L162.45 248.24L179.3 269.49C181.52 272.29 184.9 273.92 188.48 273.92H197.35L217.54 193.49L248.35 150.47L208.74 151.85V151.86Z" fill="#AC6653"></path><path d="M203.98 247.53C203.98 247.53 195.44 236.59 182.32 239.97L184.9 223.68L207.54 233.38L203.99 247.53H203.98Z" fill="#7F3533"></path><path d="M208.74 151.86L258.08 150.14L217.54 193.49L206.11 252.88C206.11 252.88 204.06 224.82 179.95 231.14L187.45 186.15C187.98 182.98 189.2 179.97 191.03 177.34L208.74 151.86Z" fill="#071B2C"></path><path d="M162.46 248.23L179.31 269.48C181.53 272.28 184.91 273.91 188.49 273.91H197.36L200.02 263.31C200.02 263.31 195.94 263.49 195.62 256.32C195.29 249.16 181.67 244.06 181.67 244.06C181.67 244.06 168.32 234.95 162.46 248.21V248.23Z" fill="#0E1011"></path><path d="M162.46 248.23L163.67 247.97C171.13 246.35 178.84 249.23 183.42 255.33L197.36 273.92H188.49C184.91 273.92 181.53 272.29 179.31 269.49L162.46 248.24V248.23Z" fill="#244F60"></path><path d="M225.16 151.28L275.47 206.57L300.68 204.18L302.35 212.51C304.94 214.81 308.68 215.31 311.78 213.76L314.88 212.22L309.31 185.84L286.69 181.34L267.54 149.81L225.17 151.29L225.16 151.28Z" fill="#AC6653"></path><path d="M300.67 204.17C300.67 204.17 299.1 196.7 302.6 194.16C306.1 191.61 301.46 184.28 301.46 184.28L309.3 185.84L314.87 212.22L311.77 213.76C308.66 215.3 304.93 214.81 302.34 212.51L300.67 204.18V204.17Z" fill="#0E1011"></path><path d="M267.53 149.81L225.16 151.29L263.68 201.47C267.38 206.29 273.16 209.06 279.23 208.92L298.87 206.24C298.87 206.24 308.98 198.32 297.83 183.56L286.67 181.34L267.52 149.81H267.53Z" fill="#244F60"></path><path d="M281.04 184.51L286.68 181.34V187.67" stroke="#071B2C" stroke-linecap="round" stroke-linejoin="round"></path><path d="M227.19 153.52C227.19 153.52 262.21 153.81 276.1 163.92L267.53 149.81L225.16 151.29L227.19 153.52Z" fill="#071B2C"></path><path d="M193.95 113.87C191.94 106.9 190.59 103.79 195.87 100.62C200.34 97.9301 206.17 95.1701 212.62 93.9901C218.9 92.8501 226.22 93.1801 232.47 93.9101C241.08 94.9201 246.55 98.6901 252.78 108L272.72 149.59L208.75 151.84L193.95 113.86V113.87Z" fill="#F9F5EA"></path><path d="M202.85 121.22L205.21 112.53C205.21 112.53 205.34 112.02 205.49 111.75C205.49 111.75 205.28 112.4 205.55 113.91C205.82 115.42 206.79 117.77 206.79 117.77C206.79 117.77 210.68 126.69 214.86 134.43C214.86 134.43 213 136.57 210.9 137.04C210.9 137.04 208.93 136.52 207.59 134.76C206.26 133 205.27 130.5 205.27 130.5C205.27 130.5 204.21 128.13 203.32 125.39C202.42 122.65 202.85 121.22 202.85 121.22Z" fill="#FAAB18"></path><path d="M210.89 137.04C210.89 137.04 214.83 136.61 219.17 128.07C223.51 119.53 222.25 118.05 221.83 114.78L225.52 122.64C225.52 122.64 226.72 124.85 226.77 127.13C226.82 129.4 226.17 131.46 225.59 132.78C225.01 134.1 223.03 138.7 220.86 139.54C218.69 140.38 215.76 138.88 215.76 138.88L210.88 137.05L210.89 137.04Z" fill="#F16C6B"></path><path d="M219.13 111.87C221.26 113.36 221.83 114.77 221.83 114.77L222.03 116.03C222.6 118.66 222.19 120.18 222.19 120.18C213.27 116.02 206.97 118.18 206.97 118.18C206.97 118.18 205.75 115.38 205.48 113.54C205.48 113.54 205.33 112.38 205.5 111.75C205.5 111.75 205.83 110.34 208.79 109.91C210.7 109.63 212.98 109.83 215.11 110.34C216.48 110.66 217.86 110.98 219.14 111.88L219.13 111.87Z" fill="#005486"></path><path d="M223.53 82.6899C223.53 82.6899 220.71 90.8899 221.24 93.2499C221.24 93.2499 215.98 107.91 207.72 106.34C201.06 105.07 203.69 96.6599 203.69 96.6599C203.69 96.6599 212.77 88.4599 211.44 77.5299L223.53 82.6799V82.6899Z" fill="#AC6653"></path><path d="M221.25 93.2599C221.25 93.2599 221.13 93.7199 220.9 94.4799C220.9 94.4799 216.41 96.2699 208.46 90.5799C210.41 87.2099 212.08 82.6799 211.46 77.5399L223.54 82.6899C223.54 82.6899 220.72 90.8899 221.26 93.2599H221.25Z" fill="#7F3533"></path><path d="M252.77 108.01L272.71 149.6" stroke="#A02021" stroke-linecap="round" stroke-linejoin="round"></path><path d="M197.79 99.51C197.79 99.51 191.07 102.56 192.16 107.04C193.25 111.52 194.32 114.84 198.19 124.78" stroke="#A02021" stroke-linecap="round" stroke-linejoin="round"></path><path d="M191.2 158.5L198.53 157.75C198.53 157.75 198.96 155.23 196.91 155.36C194.86 155.49 191.19 155.36 191.19 155.36V158.51L191.2 158.5Z" fill="#7F3533"></path><path d="M191.29 157.44L197.79 153.97C197.79 153.97 197.24 151.48 195.39 152.37C193.54 153.26 190.1 154.53 190.1 154.53L191.29 157.45V157.44Z" fill="#7F3533"></path><path d="M224.63 105.77L215.41 133.57L191.26 135.66C187.51 135.69 184.11 137.89 182.55 141.29L179.88 147.1L183.56 154.64C185.12 157.83 188.03 160.15 191.48 160.97L195.61 161.94C196.59 160.63 196.16 158.75 194.71 157.99L193.13 157.16L198.43 151.79L224.21 151.62C229.45 151.21 234.08 148.05 236.37 143.32L249.64 115.91C252.54 109.92 250.65 102.72 245.2 98.92C237.78 93.75 227.48 97.18 224.63 105.76V105.77Z" fill="#AC6653"></path><path d="M249.64 115.92L245.91 132.46C245.91 132.46 217.85 126.22 217.55 127.14L224.64 105.77C225.77 102.34 228.11 99.73 230.97 98.17C235.26 95.83 240.75 95.83 245.2 98.93C250.66 102.74 252.55 109.94 249.64 115.93V115.92Z" fill="#F9F5EA"></path><path d="M217.55 127.14L249.36 133.07L250.68 127.69L219.42 121.49L217.55 127.14Z" fill="#D9D5CB"></path><path d="M219.98 134.46L215.41 133.57L221.8 131.74" stroke="#381313" stroke-linecap="round" stroke-linejoin="round"></path><path d="M195.61 161.94L191.48 160.97C191.48 160.97 186.12 159.75 183.94 155.35C181.76 150.95 179.88 147.11 179.88 147.11" stroke="#381313" stroke-linecap="round" stroke-linejoin="round"></path><path d="M215.41 133.57L191.26 135.66" stroke="#381313" stroke-linecap="round" stroke-linejoin="round"></path><path d="M217.55 127.14L224.64 105.77C224.64 105.77 227.37 96.49 237.9 96.49" stroke="#A02021" stroke-linecap="round" stroke-linejoin="round"></path><path d="M231.41 123.86L250.68 127.69" stroke="#A02021" stroke-linecap="round" stroke-linejoin="round"></path><path d="M236.37 143.33C236.37 143.33 232.59 151.63 224.21 151.63C215.83 151.63 205.4 151.86 205.4 151.86" stroke="#381313" stroke-linecap="round" stroke-linejoin="round"></path><path d="M218.61 127.34L239.44 136.99L241.98 131.74L218.61 127.34Z" fill="#7F3533"></path><path d="M236.04 84C232.23 91.46 225.62 99.54 219.03 96.17C212.44 92.8 208.36 79.26 212.18 71.8C215.99 64.34 224.43 61.0199 231.02 64.3899C237.61 67.7599 239.86 76.54 236.04 84Z" fill="#AC6653"></path><mask id="mask1_13514_4450" style="mask-type:luminance" maskUnits="userSpaceOnUse" x="210" y="63" width="28" height="34"><path d="M236.04 84C232.23 91.46 225.62 99.54 219.03 96.17C212.44 92.8 208.36 79.26 212.18 71.8C215.99 64.34 224.43 61.0199 231.02 64.3899C237.61 67.7599 239.86 76.54 236.04 84Z" fill="white"></path></mask><g mask="url(#mask1_13514_4450)"><path d="M215.38 92.96C218.423 92.96 220.89 89.9514 220.89 86.2401C220.89 82.5287 218.423 79.52 215.38 79.52C212.337 79.52 209.87 82.5287 209.87 86.2401C209.87 89.9514 212.337 92.96 215.38 92.96Z" fill="#9F5345"></path></g><path d="M228.65 83.6099C228.58 84.4399 228.2 85.09 227.8 85.06C227.4 85.03 227.13 84.32 227.2 83.49C227.27 82.66 227.65 82.0099 228.05 82.0399C228.45 82.0699 228.72 82.7799 228.65 83.6099Z" fill="#070D10"></path><path d="M233.81 86.4001C233.18 86.9501 232.46 87.1601 232.19 86.8501C231.92 86.5501 232.22 85.8601 232.85 85.3001C233.48 84.7401 234.2 84.5401 234.47 84.8501C234.74 85.1501 234.44 85.8501 233.81 86.4001Z" fill="#070D10"></path><path d="M232.1 83.2799L230.16 86.3699" stroke="#381313" stroke-linecap="round" stroke-linejoin="round"></path><path d="M215.58 83.61C215.58 83.61 218.82 80.86 218.72 76.42C218.72 76.42 221.38 78.83 223.16 74.87C223.16 74.87 241.29 86.52 248.39 74.43C255.49 62.34 221.04 57.11 215.4 62.12C209.77 67.13 210.36 76.47 212.45 79.25C214.54 82.03 215.57 83.62 215.57 83.62L215.58 83.61Z" fill="#070D10"></path><path d="M228.83 86.36C228.83 86.36 231.01 85.93 231.13 87.41C231.25 88.89 228.83 88.36 228.83 88.36" stroke="#381313" stroke-linecap="round" stroke-linejoin="round"></path><path d="M227.72 92L224.83 87.24C224.83 87.24 221.07 90.07 222.82 93.14C224.57 96.21 227.73 92 227.73 92H227.72Z" fill="white"></path><path d="M227.19 78.7899L230.16 80.5399C230.16 80.5399 229.7 76.2799 227.19 78.7899Z" fill="#070D10"></path><path d="M233.95 82.88L236.08 83.2799C236.08 83.2799 236.69 80.06 233.95 82.88Z" fill="#070D10"></path><path d="M214.84 77.98C215.78 80.99 214.69 84.01 212.41 84.72C210.13 85.43 207.52 83.57 206.58 80.56C205.64 77.55 206.73 74.53 209.01 73.82C211.29 73.11 213.9 74.97 214.84 77.98Z" fill="#AC6653"></path><path d="M208.41 77.7299C208.41 77.7299 208.48 76.0799 210.2 76.1399C211.92 76.2099 213.38 79.5199 212.91 80.9999C212.45 82.4899 211.98 82.88 211.98 82.88" stroke="#381313" stroke-linecap="round" stroke-linejoin="round"></path><path d="M210.71 80.0601L212.54 78.42" stroke="#381313" stroke-linecap="round" stroke-linejoin="round"></path><path d="M211.51 84.8099C211.51 84.8099 213.24 94.0899 220.36 96.6899" stroke="#381313" stroke-linecap="round" stroke-linejoin="round"></path><path d="M270.25 172.8C270.25 172.8 268.28 164.61 274.61 160.65C280.94 156.7 288.79 154.82 290.98 157.83C293.17 160.84 285.5 163.76 282.65 167C279.8 170.25 274.61 173.84 270.24 172.79L270.25 172.8Z" fill="#ED8878"></path><path d="M336.11 186.25C336.11 186.25 342.75 180.28 350.52 185.89C358.3 191.5 356.53 202.47 356.53 202.47L354.22 201.39C354.22 201.39 355.57 206.79 350.84 211.78L349.26 210.24C349.26 210.24 346.49 215.13 342.36 215.95C338.23 216.77 312.35 200.55 336.1 186.24L336.11 186.25Z" fill="#FAC1AA"></path><path d="M327.6 215.5L340.57 233.28C340.57 233.28 337.41 241.03 340.28 243.88C343.15 246.73 345.19 244.9 345.19 244.9L349.46 228.77L340.53 209.59C340.53 209.59 328.18 198.67 327.61 215.5H327.6Z" fill="#ED8878"></path><path d="M327.36 215.81L326.39 258.12C326.39 258.12 321.69 261 322.62 267.25H333.23L349.12 208.21L327.35 215.81H327.36Z" fill="#FAC1AA"></path><path d="M283.62 204.77L287.59 243.35C287.59 243.35 294.04 254.5 300.52 256.9C307 259.3 310.58 255.34 310.58 255.34C310.58 255.34 311.96 246.47 306.84 245.27C301.72 244.07 299.68 238.19 299.68 238.19L304.67 225.86C304.67 225.86 295.87 194.73 283.63 204.77H283.62Z" fill="#ED8878"></path><path d="M298.12 168.04C298.12 168.04 308.77 179.45 323.09 179.07C337.41 178.69 348.19 197.07 349.2 205.18C350.21 213.29 338.75 225.32 318.75 231.53C298.75 237.74 290.2 233.96 282.07 218.48C275.12 205.25 280.26 189.14 280.26 189.14C280.26 189.14 272.51 154.73 298.11 168.04H298.12Z" fill="#FAC1AA"></path><path d="M302.52 187.05C302.52 187.05 299.37 195.06 293.63 197.74C287.89 200.42 276.43 196.51 282.84 187.77C289.25 179.03 302.52 187.05 302.52 187.05Z" fill="#ED8878"></path><path d="M334.95 224.25C330.66 228.78 322.37 231.82 316.86 233.4C289.17 241.33 277.38 220.75 277.27 202.74C278.78 199.36 279.68 198 284.19 198.12C299.19 198.51 299.79 233.16 320.93 225.46C326.67 223.37 331.84 224.91 334.97 224.24L334.95 224.25Z" fill="#FCE1D8"></path><path d="M276.38 186.76C276.38 186.76 271.5 198.18 277.16 202.24C280.02 204.29 285.54 200.98 289.32 195.5C293.1 190.02 295.9 183.07 295.9 183.07C295.9 183.07 281.19 176.32 276.38 186.76Z" fill="#FAC1AA"></path><path d="M275.78 184.22C275.78 184.22 272.85 191.29 275.04 197.9C277.23 204.51 284.94 198.44 288.73 192.96C292.51 187.48 291.3 180.87 291.3 180.87C291.3 180.87 280.6 173.78 275.79 184.22H275.78Z" fill="#BE2727"></path><path d="M277.3 182.72C277.3 182.72 274.58 189.27 276.61 195.39C278.64 201.51 285.78 195.89 289.29 190.81C292.79 185.73 291.67 179.61 291.67 179.61C291.67 179.61 281.76 173.04 277.3 182.71V182.72Z" fill="#071B2C"></path><path d="M277.38 189.71C277.38 189.71 279.79 209.74 286.69 210.52C292.12 211.14 293.53 208.28 291.92 203.96C290.31 199.65 285.71 195.55 287.61 187.04C289.51 178.53 275.83 176.6 277.37 189.7L277.38 189.71Z" fill="#E94647"></path><path d="M281.6 187.77C281.6 187.77 281.34 198.39 287.33 206.1" stroke="#BE2727" stroke-linecap="round" stroke-linejoin="round"></path><path d="M269.58 180.94C269.58 180.94 268.01 187.18 271.2 190.83C274.38 194.48 273.44 187.41 277.39 189.71C281.34 192.01 286.64 192.36 288.94 189.83C291.24 187.3 291.18 192.17 294.6 191.79C298.02 191.42 303.26 191.42 302.85 182.61C302.44 173.8 297.63 162.25 286.04 161.89C274.45 161.54 270.44 169.26 270.26 172.79C270.08 176.33 272.39 177.93 269.59 180.93L269.58 180.94Z" fill="#FAC1AA"></path><path d="M269.58 180.93C269.58 180.93 270.18 187.05 274.02 187.05C277.86 187.05 279.66 182.01 279.66 182.01C279.66 182.01 277.74 178.17 275.7 178.17C273.66 178.17 270.54 179.49 269.58 180.93Z" fill="#244F60"></path><path d="M279.65 182.01C279.65 182.01 277.85 187.05 274.01 187.05C270.17 187.05 269.58 180.93 269.58 180.93C269.58 180.93 273.11 178.89 279.64 181.99L279.65 182.01Z" fill="#071B2C"></path><path d="M306.61 215.81L306.78 267.25C306.78 267.25 299.03 271.96 299.03 280.3H313.8L326.39 222.91C326.39 222.91 323.51 193.79 306.61 215.82V215.81Z" fill="#FAC1AA"></path><path d="M283.25 176.53L288.82 175.89C288.82 175.89 285.37 172.48 283.25 176.53Z" fill="#071B2C"></path><path d="M274.26 177.54C274.26 177.54 272.16 173.44 270.87 176.89L274.26 177.54Z" fill="#071B2C"></path><path d="M290.54 189.29C290.54 189.29 292 193.24 297.92 191.32C303.84 189.4 302.86 183.67 302.86 183.67" stroke="#E47061" stroke-linecap="round" stroke-linejoin="round"></path><path d="M306.78 267.24L306.61 215.8C306.61 215.8 308.99 210.78 314.45 208.41" stroke="#E47061" stroke-linecap="round" stroke-linejoin="round"></path><path d="M302.77 280.29C302.77 280.29 302.51 277.07 305.35 275.79" stroke="#E47061" stroke-linecap="round" stroke-linejoin="round"></path><path d="M306.61 280.29C306.61 280.29 306.36 277.2 309.59 275.79" stroke="#E47061" stroke-linecap="round" stroke-linejoin="round"></path><path d="M299.02 280.29C299.02 280.29 298.97 276.66 301.5 275.79" stroke="#E47061" stroke-linecap="round" stroke-linejoin="round"></path><path d="M327.6 179.56C327.6 179.56 336.54 181.08 344.11 193.01" stroke="#E47061" stroke-linecap="round" stroke-linejoin="round"></path><path d="M326.39 222.9L320.24 250.92" stroke="#E47061" stroke-linecap="round" stroke-linejoin="round"></path><path d="M306.61 215.81C306.61 215.81 307.17 210.75 310.53 208.42" stroke="#E47061" stroke-linecap="round" stroke-linejoin="round"></path><path d="M278.7 213.35C278.7 213.35 281.95 230.51 298.52 234.37" stroke="#E47061" stroke-linecap="round" stroke-linejoin="round"></path><path d="M348.05 200.79C348.05 200.79 351.1 207.26 347.53 212.11" stroke="#E47061" stroke-linecap="round" stroke-linejoin="round"></path><path d="M337.61 185.2C337.61 185.2 345.01 180.75 350.52 185.9C356.03 191.05 356.29 194.44 356.53 202.48" stroke="#E47061" stroke-linecap="round" stroke-linejoin="round"></path><path d="M350.79 194.42C350.79 194.42 355.13 198.3 354.19 205.49" stroke="#E47061" stroke-linecap="round" stroke-linejoin="round"></path><path d="M352.75 197.1L354.79 197.75C354.79 197.75 353.07 190.05 350.26 189.33" stroke="#E47061" stroke-linecap="round" stroke-linejoin="round"></path><path d="M310.71 176.57C310.23 176.97 309.65 177.3 308.95 177.54C298.7 181.15 295.9 170.96 295.9 170.96C295.43 169.51 295.3 168.1 295.4 166.75C296.25 167.11 297.16 167.55 298.12 168.04C298.12 168.04 303.05 173.33 310.71 176.57Z" fill="#ED8878"></path><path d="M292.13 163.31C292.13 163.31 299.61 162.71 305.61 167.48C311.61 172.25 314.58 171.12 313.84 172.98C312.27 176.9 308.76 175.92 301.51 174.45C294.25 172.98 292.13 163.31 292.13 163.31Z" fill="#FAC1AA"></path><path d="M326.75 242.41C326.75 242.41 329.22 246.29 334.09 242.41" stroke="#E47061" stroke-linecap="round" stroke-linejoin="round"></path><path d="M322.62 267.24C322.62 267.24 321.98 262.62 325.07 262.29" stroke="#E47061" stroke-linecap="round" stroke-linejoin="round"></path><path d="M325.07 267.24C325.07 267.24 325.25 264.41 327.6 263.92" stroke="#E47061" stroke-linecap="round" stroke-linejoin="round"></path><path d="M329.25 267.24C329.25 267.24 329.14 265.6 330.85 264.18" stroke="#E47061" stroke-linecap="round" stroke-linejoin="round"></path></svg>