<svg xmlns="http://www.w3.org/2000/svg" width="50" height="50" viewBox="0 0 50 50" fill="none"><path d="M34.0293 8C31.9394 8 30.0234 8.66225 28.3345 9.96839C26.7154 11.2206 25.6374 12.8155 25.0027 13.9753C24.3681 12.8154 23.2901 11.2206 21.671 9.96839C19.9821 8.66225 18.0661 8 15.9762 8C10.1441 8 5.74609 12.7703 5.74609 19.0962C5.74609 25.9303 11.233 30.6062 19.5393 37.6847C20.9499 38.8868 22.5487 40.2494 24.2105 41.7026C24.4295 41.8944 24.7109 42 25.0027 42C25.2946 42 25.5759 41.8944 25.795 41.7027C27.4569 40.2492 29.0557 38.8867 30.467 37.684C38.7725 30.6062 44.2594 25.9303 44.2594 19.0962C44.2594 12.7703 39.8613 8 34.0293 8Z" fill="#075488"></path></svg>