<svg xmlns="http://www.w3.org/2000/svg" width="50" height="50" viewBox="0 0 50 50" fill="none"><path d="M14.188 11.1768L7.28837 14.8387C7.1702 14.9006 7.0586 14.9711 6.95312 15.0483L24.5961 24.2483L31.9841 20.5941L14.188 11.1768Z" fill="#075488"></path><path d="M44.1152 17.0913L35.2887 21.457V26.3753C35.2887 26.9939 34.7871 27.4954 34.1686 27.4954C33.55 27.4954 33.0485 26.9939 33.0485 26.3753V22.565L25.6992 26.2001V44.0002C25.7222 43.9896 25.7455 43.9797 25.7683 43.9683L42.6637 35.4076C43.5612 34.9588 44.1186 34.057 44.1186 33.0532V17.1903C44.1186 17.157 44.1164 17.1243 44.1152 17.0913Z" fill="#075488"></path><path d="M42.6701 14.8357L25.7817 6.27848L25.7747 6.27497C25.0227 5.90058 24.1292 5.90895 23.3842 6.29738L16.582 9.90746L34.4625 19.3694L43.0931 15.1006C42.9621 15.0008 42.8214 14.9113 42.6701 14.8357Z" fill="#075488"></path><path d="M5.8803 17.0161C5.87732 17.0674 5.875 17.1188 5.875 17.1707V33.0725C5.875 34.0556 6.41581 34.9487 7.28649 35.4046L23.3724 43.942L23.3796 43.9458C23.4063 43.9598 23.4337 43.9721 23.4608 43.985V26.1835L5.8803 17.0161Z" fill="#075488"></path></svg>