<svg xmlns="http://www.w3.org/2000/svg" width="50" height="50" viewBox="0 0 50 50" fill="none"><path d="M10.1448 26.3487L7.45857 29.035C6.71693 29.7766 6.71693 30.9793 7.45857 31.7212C8.20054 32.4629 9.4032 32.4629 10.1448 31.7212L12.8311 29.035C13.5731 28.293 13.5731 27.0904 12.8311 26.3487C12.0895 25.6067 10.8868 25.6067 10.1448 26.3487Z" fill="#075488"></path><path d="M19.098 35.3028L16.4117 37.9891C15.6701 38.7307 15.6701 39.9334 16.4117 40.675C17.1533 41.417 18.356 41.417 19.098 40.675L21.7842 37.9891C22.5259 37.2471 22.5259 36.0445 21.7842 35.3028C21.0423 34.5608 19.8399 34.5608 19.098 35.3028Z" fill="#075488"></path><path d="M25.3675 43.3614L26.2628 42.4661C27.0048 41.7242 27.0048 40.5215 26.2628 39.7799C25.5212 39.0382 24.3185 39.0382 23.5765 39.7799L22.6812 40.6752C21.9396 41.4171 21.9396 42.6198 22.6812 43.3614C23.4229 44.1034 24.6259 44.1034 25.3675 43.3614Z" fill="#075488"></path><path d="M16.4123 29.0352L11.9354 33.5121C11.1934 34.2541 11.1934 35.4567 11.9354 36.1984C12.677 36.94 13.8797 36.94 14.6213 36.1984L19.0985 31.7215C19.8402 30.9795 19.8402 29.7769 19.0985 29.0352C18.3566 28.2933 17.1542 28.2933 16.4123 29.0352Z" fill="#075488"></path><path d="M19.5452 9.7838L16.2934 6.49769C15.7987 6.00305 14.9971 6.00305 14.5024 6.49769L3.7577 17.2424C3.26306 17.7371 3.26306 18.5387 3.7577 19.0334L5.95295 21.2626C6.64776 21.9577 7.17143 22.8049 7.48239 23.7375L7.90515 25.0057L8.35297 24.5579C10.0809 22.8303 12.8928 22.8303 14.6208 24.5579C15.1682 25.1056 15.5224 25.7668 15.7229 26.4633C17.3915 25.5996 19.4911 25.8466 20.8886 27.2442C22.2862 28.6417 22.5332 30.7413 21.6695 32.4103C22.366 32.6108 23.0272 32.9643 23.5749 33.512C24.4521 34.3892 24.8791 35.546 24.8656 36.6982C26.0181 36.685 27.1746 37.112 28.0518 37.9892C28.4923 38.4298 29.8427 39.7798 29.8427 39.7798C30.5844 40.5218 31.787 40.5218 32.5287 39.7798C33.2706 39.0382 33.2706 37.8355 32.5287 37.0936L29.3949 33.9598C28.9003 33.4652 28.9003 32.6635 29.3949 32.1689C29.8896 31.6746 30.6912 31.6746 31.1855 32.1689L34.3196 35.303C35.0613 36.0446 36.2642 36.0446 37.0059 35.303C37.7475 34.5613 37.7475 33.3583 37.0059 32.6167L33.8718 29.4826C33.3775 28.9883 33.3775 28.1866 33.8718 27.692C34.3664 27.1973 35.1684 27.1973 35.6627 27.692L38.7968 30.8257C39.5385 31.5674 40.7411 31.5674 41.4831 30.8257C42.2247 30.0841 42.2247 28.8815 41.4831 28.1398L33.7814 20.4382C31.3244 22.0629 27.9753 21.7951 25.8133 19.6332C25.3194 19.1392 24.5167 19.1392 24.0227 19.6332C21.5541 22.1018 17.5372 22.1018 15.0686 19.6332C13.5873 18.1522 13.5873 15.742 15.0686 14.261L19.5452 9.7838Z" fill="#075488"></path><path d="M35.4913 6.37099C34.9967 5.87634 34.195 5.87634 33.7004 6.37099L31.022 9.04933C30.5518 9.51958 29.914 9.78372 29.2492 9.78372H24.6978C23.6904 9.78372 22.7241 10.1841 22.0119 10.8963L16.8566 16.0516C16.3551 16.5531 16.3551 17.3409 16.8566 17.8425C18.3429 19.3288 20.7426 19.3288 22.2288 17.8425C23.5683 16.503 25.6673 16.3747 27.1522 17.4577C29.1493 18.9146 31.8125 19.0036 33.5605 17.2555L33.8692 16.9469L42.5816 25.6592C42.7023 25.2131 42.7046 24.7408 42.5865 24.3026C42.3817 23.5431 42.6789 22.4638 43.2352 21.9075L46.236 18.9067C46.7307 18.412 46.7307 17.6103 46.236 17.116L35.4913 6.37099Z" fill="#075488"></path></svg>