<svg xmlns="http://www.w3.org/2000/svg" width="50" height="50" viewBox="0 0 50 50" fill="none"><path d="M42.4646 7.5715L42.4285 7.53534C40.5852 5.78238 36.904 8.89567 36.904 8.89567L30.2206 14.1574L23.1847 12.9104C24.1997 11.4391 24.5055 9.97838 23.8288 9.30168C22.9523 8.4252 20.7609 9.19561 18.9342 11.0223C18.6147 11.3418 18.3285 11.6724 18.0768 12.0052L12.6744 11.0477L9.07586 14.1139L23.7448 20.8449L14.3405 32.2081L8.48336 31.11L7 32.5913L17.409 43L18.8901 41.5167L17.7919 35.6594L29.1553 26.2552L35.8862 40.924L38.9524 37.3255L37.9949 31.9231C38.3278 31.6714 38.6584 31.3852 38.9779 31.0656C40.8046 29.239 41.575 27.0477 40.6986 26.1713C40.0217 25.4945 38.561 25.8003 37.0896 26.8152L35.8426 19.7794L41.1043 13.0959C41.1043 13.0959 44.2177 9.41475 42.4646 7.5715Z" fill="#075488"></path></svg>