<svg xmlns="http://www.w3.org/2000/svg" width="50" height="50" viewBox="0 0 50 50" fill="none"><path d="M42.4052 17.1951L38.5257 14.874L37.6516 11.2558C37.2636 9.65113 35.7773 8.58134 34.1476 8.70959L29.7086 9.05315L27.1657 6.80165C25.9133 5.73297 24.0911 5.73297 22.8344 6.80053L20.2914 9.05307L15.8524 8.70951C14.2412 8.59648 12.7354 9.65209 12.3886 11.1241C12.3169 11.3472 11.0205 15.377 11.1046 15.1152L7.59543 17.1939C6.18972 18.0571 5.62655 19.7901 6.256 21.3144L7.77043 24.9847L6.25711 28.654C5.62655 30.1794 6.19076 31.9113 7.59543 32.7734L11.471 35.0782L12.3483 38.7127C12.7343 40.3163 14.214 41.3807 15.8523 41.259L20.2435 40.9198L22.8342 43.1977C23.4616 43.7325 24.2303 44 25 44C25.7686 44 26.5384 43.7325 27.1657 43.1976L29.7565 40.9197L34.1476 41.2589C35.8067 41.3904 37.2657 40.3174 37.6516 38.7127L38.5257 35.0945L42.4052 32.7734C43.8088 31.9113 44.3719 30.1794 43.7435 28.654L42.2291 24.9848L43.7446 21.3133C44.373 19.7902 43.8099 18.0572 42.4052 17.1951ZM25 37.2461C18.2475 37.2461 12.7539 31.7525 12.7539 25C12.7539 18.2475 18.2475 12.7539 25 12.7539C31.7525 12.7539 37.2461 18.2475 37.2461 25C37.2461 31.7525 31.7525 37.2461 25 37.2461Z" fill="#075488"></path><path d="M25 14.9805C19.4749 14.9805 14.9805 19.4749 14.9805 25C14.9805 30.5251 19.4749 35.0195 25 35.0195C30.5251 35.0195 35.0195 30.5251 35.0195 25C35.0195 19.4749 30.5251 14.9805 25 14.9805ZM31.3535 22.4472L24.6738 29.1269C24.4563 29.3444 24.1715 29.4531 23.8867 29.4531C23.6019 29.4531 23.317 29.3444 23.0996 29.1269L18.6465 24.6738C18.2117 24.239 18.2117 23.5344 18.6465 23.0996C19.0814 22.6647 19.7859 22.6647 20.2208 23.0996L23.8867 26.7656L29.7793 20.873C30.2142 20.4381 30.9187 20.4381 31.3536 20.873C31.7884 21.3078 31.7884 22.0124 31.3535 22.4472Z" fill="#075488"></path></svg>