<svg xmlns="http://www.w3.org/2000/svg" width="50" height="50" viewBox="0 0 50 50" fill="none"><path d="M43.8826 23.9896C44.8962 23.0123 45.254 21.578 44.8165 20.2471C44.3798 18.9156 43.2384 17.9634 41.8379 17.7621L33.1905 16.5187C32.7515 16.4553 32.3722 16.1827 32.1759 15.7893L28.3087 8.03474C27.6825 6.77965 26.4146 6 24.9999 6C23.5852 6 22.3173 6.77965 21.6912 8.03474L17.8239 15.7892C17.6277 16.1827 17.2484 16.4554 16.8101 16.5186L8.16212 17.762C6.76149 17.9634 5.62017 18.9156 5.18368 20.2464C4.74595 21.578 5.10368 23.0124 6.11704 23.9893L12.3747 30.0258C12.6921 30.3319 12.837 30.7728 12.7622 31.2047L11.2847 39.7282C11.0459 41.1081 11.6084 42.4763 12.7525 43.2987C13.8969 44.1215 15.3859 44.2281 16.6388 43.5769L24.3733 39.5529C24.7656 39.3489 25.2341 39.349 25.6261 39.5527L33.3612 43.5769C34.6141 44.2282 36.1031 44.1215 37.2475 43.2987C38.3916 42.4762 38.9541 41.1081 38.7153 39.7282L37.2377 31.2051C37.163 30.7728 37.3077 30.3319 37.6254 30.0256L43.8826 23.9896Z" fill="#075488"></path></svg>