<svg xmlns="http://www.w3.org/2000/svg" id="Layer_2" data-name="Layer 2" viewBox="0 0 287.39 108.65"><defs><style>      .cls-1 {        fill: #005487;      }      .cls-2 {        fill: #f26c6b;      }      .cls-3 {        fill: #fbac18;      }    </style></defs><g id="Layer_1-2" data-name="Layer 1"><g><g><path class="cls-3" d="M2.89,32.62L23.84,5.82s1.19-1.56,2.18-2.34c0,0-1.74,1.98-2.28,7.22-.54,5.24,1.16,13.83,1.16,13.83,0,0,7.33,32.86,17.35,62.05,0,0-10.98,5.52-21.15,5.28,0,0-8.41-3.39-12.43-10.35-4.02-6.95-5.61-16.09-5.61-16.09,0,0-2.04-8.76-2.92-18.6-.88-9.85,2.75-14.21,2.75-14.21Z"></path><path class="cls-2" d="M21.1,91.87s18.48,1.91,48.3-22.71c29.82-24.62,25.77-30.6,27.69-41.79l7.67,29.17s2.9,8.36.46,15.93c-2.44,7.57-7.78,13.83-11.98,17.72-4.19,3.89-18.6,17.44-29.51,18.38-10.9.95-22.51-6.5-22.51-6.5l-20.12-10.2Z"></path><path class="cls-1" d="M88.15,15.47c7.99,6.74,8.93,11.89,8.93,11.89l-.57,4.35c-.49,9.2-4.13,13.88-4.13,13.88C56.54,24.25,25.24,26.04,25.24,26.04c0,0-2.28-10.31-1.39-16.64,0,0,.65-3.96,2.16-5.92,0,0,3.18-4.4,17.18-3.31,9.05.7,19.24,3.31,28.35,6.79,5.86,2.24,11.8,4.46,16.6,8.51Z"></path></g><g><path class="cls-1" d="M150.68,17.59h12.68l-21.68,61.92h-4.06c-5.05,0-9.55-3.19-11.22-7.96l-18.89-53.96h12.68l10.57,33.07,4.59,16.72h.18l4.59-16.72,10.57-33.07Z"></path><path class="cls-1" d="M218.68,17.59h12.68l-21.68,61.92h-4.06c-5.05,0-9.55-3.19-11.22-7.96l-18.89-53.96h12.68l10.57,33.07,4.59,16.72h.18l4.59-16.72,10.57-33.07Z"></path><path class="cls-1" d="M248.07,17.59l11.94-.09v51.72h27.38v10.29h-26.64c-7,0-12.68-5.68-12.68-12.68V17.59Z"></path></g><g><path class="cls-1" d="M119.91,105.6l-7.08-16.1h2.48l6.51,14.86h-1.43l6.56-14.86h2.3l-7.06,16.1h-2.28Z"></path><path class="cls-1" d="M140.09,105.73c-1.3,0-2.45-.27-3.44-.8-.99-.54-1.76-1.27-2.3-2.21-.54-.94-.82-2.01-.82-3.22s.26-2.29.79-3.22,1.26-1.67,2.19-2.2c.93-.53,1.97-.79,3.14-.79s2.22.26,3.13.78c.9.52,1.61,1.25,2.13,2.2.51.94.77,2.04.77,3.3,0,.09,0,.2-.01.32,0,.12-.02.24-.03.35h-10.37v-1.59h9.22l-.9.55c.02-.78-.15-1.48-.48-2.09-.34-.61-.8-1.09-1.39-1.44-.59-.35-1.28-.52-2.06-.52s-1.45.17-2.05.52c-.6.34-1.07.83-1.4,1.45-.34.62-.51,1.33-.51,2.13v.37c0,.81.19,1.54.56,2.17.38.64.9,1.13,1.58,1.48.67.35,1.45.53,2.32.53.72,0,1.38-.12,1.97-.37.59-.24,1.11-.61,1.55-1.1l1.22,1.43c-.55.64-1.24,1.13-2.06,1.47-.82.34-1.74.51-2.75.51Z"></path><path class="cls-1" d="M151.59,95.22v-1.82h7.77v1.82h-7.77ZM157.52,105.73c-1.23,0-2.18-.33-2.85-.99s-1.01-1.6-1.01-2.83v-11.18h2.21v11.09c0,.66.16,1.17.49,1.52.33.35.8.53,1.41.53.69,0,1.27-.19,1.73-.57l.69,1.59c-.34.29-.74.51-1.21.64-.47.14-.95.21-1.46.21Z"></path><path class="cls-1" d="M172.43,105.6l-7.08-16.1h2.48l6.51,14.86h-1.43l6.56-14.86h2.3l-7.06,16.1h-2.28Z"></path><path class="cls-1" d="M188.97,91.06c-.43,0-.79-.14-1.07-.41-.28-.28-.43-.61-.43-1.01s.14-.76.43-1.03c.28-.28.64-.41,1.07-.41s.79.13,1.07.4c.28.27.43.6.43,1s-.14.76-.41,1.05c-.28.28-.64.43-1.08.43ZM187.86,105.6v-12.19h2.21v12.19h-2.21Z"></path><path class="cls-1" d="M197.13,95.22v-1.82h7.77v1.82h-7.77ZM203.07,105.73c-1.23,0-2.18-.33-2.85-.99s-1.01-1.6-1.01-2.83v-11.18h2.21v11.09c0,.66.16,1.17.49,1.52.33.35.8.53,1.41.53.69,0,1.27-.19,1.73-.57l.69,1.59c-.34.29-.74.51-1.21.64-.47.14-.95.21-1.46.21Z"></path><path class="cls-1" d="M216.57,105.73c-.91,0-1.7-.15-2.38-.46-.68-.31-1.21-.73-1.58-1.28-.37-.54-.55-1.16-.55-1.85s.16-1.26.47-1.79c.31-.54.83-.97,1.54-1.29.71-.32,1.68-.48,2.89-.48h3.86v1.59h-3.77c-1.1,0-1.85.18-2.23.55-.38.37-.57.81-.57,1.33,0,.6.24,1.08.71,1.44.48.36,1.13.54,1.98.54s1.55-.18,2.17-.55c.62-.37,1.07-.9,1.35-1.61l.44,1.52c-.29.72-.8,1.29-1.54,1.71-.74.42-1.66.63-2.78.63ZM220.57,105.6v-2.58l-.12-.48v-4.39c0-.94-.27-1.66-.82-2.17-.54-.51-1.36-.77-2.45-.77-.72,0-1.43.12-2.12.36-.69.24-1.27.56-1.75.95l-.92-1.66c.63-.51,1.38-.89,2.27-1.16.88-.27,1.81-.4,2.77-.4,1.67,0,2.96.41,3.86,1.22.9.81,1.36,2.06,1.36,3.73v7.36h-2.09Z"></path><path class="cls-1" d="M231.36,105.6v-17.07h2.21v17.07h-2.21Z"></path><path class="cls-1" d="M242.37,105.6v-17.07h2.21v17.07h-2.21Z"></path><path class="cls-1" d="M254.5,91.06c-.43,0-.79-.14-1.07-.41-.28-.28-.43-.61-.43-1.01s.14-.76.43-1.03c.28-.28.64-.41,1.07-.41s.79.13,1.07.4c.28.27.43.6.43,1s-.14.76-.41,1.05c-.28.28-.64.43-1.08.43ZM253.39,105.6v-12.19h2.21v12.19h-2.21Z"></path><path class="cls-1" d="M267.91,105.73c-1.01,0-1.97-.14-2.89-.41-.91-.28-1.63-.61-2.15-1.01l.92-1.75c.52.35,1.17.65,1.93.9.77.25,1.55.37,2.35.37,1.03,0,1.77-.15,2.22-.44.45-.29.68-.7.68-1.22,0-.38-.14-.68-.41-.9-.28-.21-.64-.38-1.09-.48-.45-.11-.95-.2-1.51-.29-.55-.08-1.1-.19-1.66-.32-.55-.13-1.06-.31-1.52-.55s-.83-.57-1.1-.99c-.28-.42-.41-.98-.41-1.69s.21-1.38.62-1.93c.41-.55,1-.98,1.76-1.28.76-.3,1.66-.45,2.7-.45.8,0,1.61.1,2.43.29.82.19,1.49.46,2.01.82l-.94,1.75c-.55-.37-1.13-.62-1.73-.76-.6-.14-1.2-.21-1.79-.21-.97,0-1.69.16-2.16.47-.48.31-.71.72-.71,1.21,0,.41.14.73.43.95.28.22.65.4,1.1.52.45.12.95.23,1.51.31.55.08,1.1.19,1.66.32s1.05.31,1.51.54c.45.23.82.55,1.1.97.28.41.43.97.43,1.66,0,.74-.21,1.37-.64,1.91-.43.54-1.03.95-1.82,1.25-.78.3-1.72.45-2.81.45Z"></path><path class="cls-1" d="M278.79,95.22v-1.82h7.77v1.82h-7.77ZM284.72,105.73c-1.23,0-2.18-.33-2.85-.99s-1.01-1.6-1.01-2.83v-11.18h2.21v11.09c0,.66.16,1.17.49,1.52.33.35.8.53,1.41.53.69,0,1.27-.19,1.73-.57l.69,1.59c-.34.29-.74.51-1.21.64-.47.14-.95.21-1.46.21Z"></path></g></g></g></svg>