<svg xmlns="http://www.w3.org/2000/svg" id="Layer_2" data-name="Layer 2" viewBox="0 0 299.51 110.92"><defs><style>      .cls-1 {        fill: #fff;      }    </style></defs><g id="Layer_1-2" data-name="Layer 1"><g><g><g><path class="cls-1" d="M157.04,16.02h13.21l-22.6,64.53h-4.23c-5.26,0-9.95-3.33-11.69-8.29l-19.69-56.24h13.21l11.01,34.47,4.79,17.43h.19l4.79-17.43,11.01-34.47Z"></path><path class="cls-1" d="M229.44,16.02h13.21l-22.6,64.53h-4.23c-5.26,0-9.95-3.33-11.69-8.29l-19.69-56.24h13.21l11.01,34.47,4.79,17.43h.19l4.79-17.43,11.01-34.47Z"></path><path class="cls-1" d="M258.53,16.02l12.45-.1v53.91h28.53v10.72h-27.77c-7.3,0-13.21-5.92-13.21-13.21V16.02Z"></path></g><g><path class="cls-1" d="M124.97,107.74l-7.38-16.78h2.59l6.78,15.49h-1.49l6.83-15.49h2.4l-7.36,16.78h-2.37Z"></path><path class="cls-1" d="M146,107.89c-1.36,0-2.55-.28-3.58-.84-1.03-.56-1.83-1.33-2.4-2.3-.57-.97-.85-2.09-.85-3.36s.28-2.38.83-3.36,1.31-1.74,2.28-2.29c.97-.55,2.06-.83,3.27-.83s2.32.27,3.26.81c.94.54,1.68,1.31,2.22,2.29.54.98.8,2.13.8,3.44,0,.1,0,.21-.01.34,0,.13-.02.25-.04.36h-10.81v-1.65h9.61l-.93.58c.02-.82-.15-1.54-.5-2.18-.35-.64-.84-1.14-1.45-1.5-.62-.36-1.33-.54-2.15-.54s-1.51.18-2.13.54c-.62.36-1.11.86-1.46,1.51-.35.65-.53,1.39-.53,2.22v.38c0,.85.2,1.6.59,2.27.39.66.94,1.18,1.64,1.55.7.37,1.51.55,2.42.55.75,0,1.43-.13,2.05-.38.62-.26,1.15-.64,1.62-1.15l1.27,1.49c-.58.67-1.29,1.18-2.15,1.53-.85.35-1.81.53-2.86.53Z"></path><path class="cls-1" d="M157.98,96.93v-1.89h8.1v1.89h-8.1ZM164.17,107.89c-1.28,0-2.27-.34-2.97-1.03s-1.05-1.67-1.05-2.95v-11.65h2.3v11.55c0,.69.17,1.21.52,1.58.34.37.83.55,1.47.55.72,0,1.32-.2,1.8-.6l.72,1.65c-.35.3-.77.53-1.26.67-.49.14-.99.22-1.52.22Z"></path><path class="cls-1" d="M179.7,107.74l-7.38-16.78h2.59l6.78,15.49h-1.49l6.83-15.49h2.4l-7.36,16.78h-2.37Z"></path><path class="cls-1" d="M196.94,92.59c-.45,0-.82-.14-1.11-.43-.3-.29-.44-.64-.44-1.06s.15-.79.44-1.08c.3-.29.67-.43,1.11-.43s.82.14,1.11.42c.3.28.44.63.44,1.04s-.14.8-.43,1.09c-.29.3-.66.44-1.13.44ZM195.79,107.74v-12.71h2.3v12.71h-2.3Z"></path><path class="cls-1" d="M205.45,96.93v-1.89h8.1v1.89h-8.1ZM211.63,107.89c-1.28,0-2.27-.34-2.97-1.03s-1.05-1.67-1.05-2.95v-11.65h2.3v11.55c0,.69.17,1.21.52,1.58.34.37.83.55,1.47.55.72,0,1.32-.2,1.8-.6l.72,1.65c-.35.3-.77.53-1.26.67-.49.14-.99.22-1.52.22Z"></path><path class="cls-1" d="M225.7,107.89c-.94,0-1.77-.16-2.48-.48-.71-.32-1.26-.76-1.64-1.33-.38-.57-.58-1.21-.58-1.93s.16-1.31.49-1.87c.33-.56.86-1.01,1.61-1.34.74-.34,1.75-.5,3.01-.5h4.03v1.65h-3.93c-1.15,0-1.93.19-2.33.57-.4.38-.6.85-.6,1.39,0,.62.25,1.12.74,1.5.5.38,1.18.56,2.06.56s1.62-.19,2.27-.57c.65-.38,1.11-.94,1.4-1.68l.46,1.58c-.3.75-.84,1.35-1.61,1.79-.77.44-1.73.66-2.9.66ZM229.87,107.74v-2.68l-.12-.5v-4.58c0-.97-.28-1.73-.85-2.27-.57-.54-1.42-.8-2.55-.8-.75,0-1.49.12-2.21.37-.72.25-1.33.58-1.82,1l-.96-1.73c.66-.53,1.44-.93,2.36-1.21.92-.28,1.88-.42,2.89-.42,1.74,0,3.08.42,4.03,1.27.94.85,1.41,2.14,1.41,3.88v7.67h-2.18Z"></path><path class="cls-1" d="M241.12,107.74v-17.79h2.3v17.79h-2.3Z"></path><path class="cls-1" d="M252.6,107.74v-17.79h2.3v17.79h-2.3Z"></path><path class="cls-1" d="M265.23,92.59c-.45,0-.82-.14-1.11-.43-.3-.29-.44-.64-.44-1.06s.15-.79.44-1.08c.3-.29.67-.43,1.11-.43s.82.14,1.11.42c.3.28.44.63.44,1.04s-.14.8-.43,1.09c-.29.3-.66.44-1.13.44ZM264.08,107.74v-12.71h2.3v12.71h-2.3Z"></path><path class="cls-1" d="M279.21,107.89c-1.05,0-2.06-.14-3.01-.43-.95-.29-1.7-.64-2.24-1.06l.96-1.82c.54.37,1.21.68,2.01.93.8.26,1.61.38,2.45.38,1.07,0,1.84-.15,2.31-.46.47-.3.71-.73.71-1.27,0-.4-.14-.71-.43-.93-.29-.22-.67-.39-1.14-.5-.47-.11-.99-.21-1.57-.3-.58-.09-1.15-.2-1.73-.34-.58-.14-1.1-.33-1.58-.58s-.86-.59-1.15-1.03c-.29-.44-.43-1.03-.43-1.76s.22-1.44.65-2.01c.43-.58,1.04-1.02,1.83-1.33.79-.31,1.73-.47,2.82-.47.83,0,1.67.1,2.53.3.85.2,1.55.48,2.1.85l-.98,1.82c-.58-.38-1.17-.65-1.8-.79-.62-.14-1.25-.22-1.87-.22-1.01,0-1.76.16-2.25.49-.5.33-.74.75-.74,1.26,0,.43.15.76.44.99.3.23.68.41,1.15.54.47.13.99.24,1.57.32.58.09,1.15.2,1.73.34s1.1.32,1.57.56c.47.24.85.57,1.15,1.01.3.43.44,1.01.44,1.73,0,.77-.22,1.43-.67,1.99-.45.56-1.08.99-1.89,1.31-.82.31-1.79.47-2.92.47Z"></path><path class="cls-1" d="M290.55,96.93v-1.89h8.1v1.89h-8.1ZM296.73,107.89c-1.28,0-2.27-.34-2.97-1.03s-1.05-1.67-1.05-2.95v-11.65h2.3v11.55c0,.69.17,1.21.52,1.58.34.37.83.55,1.47.55.72,0,1.32-.2,1.8-.6l.72,1.65c-.35.3-.77.53-1.26.67-.49.14-.99.22-1.52.22Z"></path></g></g><g><polyline class="cls-1" points="33.4 52.62 33.4 52.62 33.4 52.62"></polyline><path class="cls-1" d="M98.35,26.11c-.37,6.42-1.58,13.19-4.59,17.75-.16-.23-.39-.44-.69-.63-6.43-4.02-14.37-7.66-21.57-9.91-4.8-1.51-9.63-2.95-14.48-4.29-8.13-2.24-18-3.72-26.44-4.21-.57-.01-1.03-.01-1.41,0-3.92-16.53.72-21.67.75-21.71C32.28,1.08,35.06.13,38.37.05c.52-.01,1.04,0,1.56,0,7.03-.34,13.87,1,20.63,2.61,5.85,1.39,11.69,2.96,17.36,4.93,6.37,2.21,12.42,5.24,16.67,10.73,1.55,2,2.82,4.43,3.5,6.86l.25.93"></path><path class="cls-1" d="M41.74,85.65s-.82-1.38-1.04-2.26c-2.79-10.78-5.55-21.58-8.33-32.37-2.03-7.89-4.09-15.77-6.12-23.67-.25-.95-.38-2.09-.38-2.09-4.51-18.07.52-23.64.56-23.67-.78.67-1.51,1.45-2.19,2.36-6.25,8.22-12.69,16.29-19.19,24.32C1.66,32.47-.41,36.93.07,42.47c.86,9.89,2.37,19.64,5.17,29.17,1.09,3.72,2.69,7.22,4.85,10.47,2.64,3.98,6.55,6.19,10.7,8.24.22.11.45.22.67.34,10.43-.1,20.28-5.03,20.28-5.03Z"></path><path class="cls-1" d="M108.21,76.97c2.53-5.29,3.34-10.83,1.88-16.55-2.89-11.35-5.79-22.69-8.9-33.98-.45,7.69-2.01,15.85-6.1,20.71,0,0-1.68,2.72-5.78,7.18-.76.9-1.54,1.79-2.35,2.66-7.07,7.6-15.33,13.8-23.95,19.5-5.75,3.8-11.69,7.31-17.59,10.88-1.75,1.06-2.36.98-2.36.98,0,0-7.15,4.24-20.91,5.2h0c9.21,4.56,18.35,9.27,27.48,14,7.82,4.05,15.75,4.48,23.88,1.12,6.34-2.62,11.9-6.51,17.09-10.92,7.01-5.94,13.55-12.32,17.6-20.78Z"></path></g></g></g></svg>